<?xml version="1.0" encoding="UTF-8" standalone="no"?>
<svg width="122.414mm" height="82.1972mm"
 viewBox="0 0 347 233"
 xmlns="http://www.w3.org/2000/svg" xmlns:xlink="http://www.w3.org/1999/xlink"  version="1.2" baseProfile="tiny">
<title>Qt SVG Document</title>
<desc>MATLAB, The MathWorks, Inc. Version 25.1.0.2973910 R2025a Update 1</desc>
<defs>
</defs>
<g fill="none" stroke="black" stroke-width="1" fill-rule="evenodd" stroke-linecap="square" stroke-linejoin="bevel" >

<g fill="#ffffff" fill-opacity="1" stroke="none" transform="matrix(0.5,0,0,0.5,-39.5,-17.5)"
font-family=".AppleSystemUIFont" font-size="13" font-weight="400" font-style="normal" 
>
<path vector-effect="none" fill-rule="evenodd" d="M78,34 L773,34 L773,501 L78,501 L78,34"/>
</g>

<g fill="#ffffff" fill-opacity="1" stroke="none" transform="matrix(5e-05,0,0,5e-05,-39.5,-17.5)"
font-family=".AppleSystemUIFont" font-size="13" font-weight="400" font-style="normal" 
>
<path vector-effect="none" fill-rule="evenodd" d="M1.09e+06,380000 L1.09e+06,4.48e+06 L7.6e+06,4.48e+06 L7.6e+06,380000 L1.09e+06,380000"/>
</g>

<g fill="#212121" fill-opacity="1" stroke="#212121" stroke-opacity="1" stroke-width="1" stroke-linecap="butt" stroke-linejoin="round" transform="matrix(0.5,0,0,0.5,-39.5,-17.5)"
font-family=".AppleSystemUIFont" font-size="13" font-weight="400" font-style="normal" 
>
<polyline fill="none" vector-effect="none" points="109,448 760,448 " />
</g>

<g fill="#000000" fill-opacity="0.101961" stroke="none" transform="matrix(5e-05,0,0,5e-05,-39.5,-17.5)"
font-family=".AppleSystemUIFont" font-size="13" font-weight="400" font-style="normal" 
>
<path vector-effect="none" fill-rule="evenodd" d="M2.98875e+06,455331 L2.98875e+06,4.48e+06 L3.53125e+06,4.48e+06 L4.07375e+06,4.48e+06 L4.61625e+06,4.48e+06 L4.61625e+06,455331 L4.07375e+06,455331 L3.53125e+06,455331 L2.98875e+06,455331"/>
</g>

<g fill="none" stroke="#1171be" stroke-opacity="1" stroke-width="4" stroke-linecap="butt" stroke-linejoin="round" transform="matrix(0.5,0,0,0.5,-39.5,-17.5)"
font-family=".AppleSystemUIFont" font-size="13" font-weight="400" font-style="normal" 
>
<polyline fill="none" vector-effect="none" points="109,447.514 163.25,440.061 217.5,351.376 271.75,156.31 326,127.36 380.25,120.887 434.5,122.596 488.75,232.859 543,255.552 597.25,283.146 651.5,308.047 705.75,330.982 760,350.03 " />
</g>

<g fill="none" stroke="#dd5400" stroke-opacity="1" stroke-width="3" stroke-linecap="butt" stroke-linejoin="miter" stroke-miterlimit="2" transform="matrix(0.5,0,0,0.5,-39.5,-17.5)"
font-family=".AppleSystemUIFont" font-size="13" font-weight="400" font-style="normal" 
>
<path vector-effect="none" fill-rule="evenodd" d="M117,447.521 C117,443.103 113.418,439.521 109,439.521 C104.582,439.521 101,443.103 101,447.521 C101,451.94 104.582,455.521 109,455.521 C113.418,455.521 117,451.94 117,447.521 "/>
<path vector-effect="none" fill-rule="evenodd" d="M117,447.523 C117,443.104 113.418,439.523 109,439.523 C104.582,439.523 101,443.104 101,447.523 C101,451.941 104.582,455.523 109,455.523 C113.418,455.523 117,451.941 117,447.523 "/>
<path vector-effect="none" fill-rule="evenodd" d="M117,447.51 C117,443.091 113.418,439.51 109,439.51 C104.582,439.51 101,443.091 101,447.51 C101,451.928 104.582,455.51 109,455.51 C113.418,455.51 117,451.928 117,447.51 "/>
<path vector-effect="none" fill-rule="evenodd" d="M117,447.508 C117,443.09 113.418,439.508 109,439.508 C104.582,439.508 101,443.09 101,447.508 C101,451.926 104.582,455.508 109,455.508 C113.418,455.508 117,451.926 117,447.508 "/>
<path vector-effect="none" fill-rule="evenodd" d="M117,447.509 C117,443.091 113.418,439.509 109,439.509 C104.582,439.509 101,443.091 101,447.509 C101,451.927 104.582,455.509 109,455.509 C113.418,455.509 117,451.927 117,447.509 "/>
<path vector-effect="none" fill-rule="evenodd" d="M171.25,439.992 C171.25,435.574 167.668,431.992 163.25,431.992 C158.832,431.992 155.25,435.574 155.25,439.992 C155.25,444.41 158.832,447.992 163.25,447.992 C167.668,447.992 171.25,444.41 171.25,439.992 "/>
<path vector-effect="none" fill-rule="evenodd" d="M171.25,440.22 C171.25,435.802 167.668,432.22 163.25,432.22 C158.832,432.22 155.25,435.802 155.25,440.22 C155.25,444.639 158.832,448.22 163.25,448.22 C167.668,448.22 171.25,444.639 171.25,440.22 "/>
<path vector-effect="none" fill-rule="evenodd" d="M171.25,440.281 C171.25,435.862 167.668,432.281 163.25,432.281 C158.832,432.281 155.25,435.862 155.25,440.281 C155.25,444.699 158.832,448.281 163.25,448.281 C167.668,448.281 171.25,444.699 171.25,440.281 "/>
<path vector-effect="none" fill-rule="evenodd" d="M171.25,439.839 C171.25,435.421 167.668,431.839 163.25,431.839 C158.832,431.839 155.25,435.421 155.25,439.839 C155.25,444.257 158.832,447.839 163.25,447.839 C167.668,447.839 171.25,444.257 171.25,439.839 "/>
<path vector-effect="none" fill-rule="evenodd" d="M171.25,439.971 C171.25,435.553 167.668,431.971 163.25,431.971 C158.832,431.971 155.25,435.553 155.25,439.971 C155.25,444.39 158.832,447.971 163.25,447.971 C167.668,447.971 171.25,444.39 171.25,439.971 "/>
<path vector-effect="none" fill-rule="evenodd" d="M225.5,352.528 C225.5,348.109 221.918,344.528 217.5,344.528 C213.082,344.528 209.5,348.109 209.5,352.528 C209.5,356.946 213.082,360.528 217.5,360.528 C221.918,360.528 225.5,356.946 225.5,352.528 "/>
<path vector-effect="none" fill-rule="evenodd" d="M225.5,349.546 C225.5,345.128 221.918,341.546 217.5,341.546 C213.082,341.546 209.5,345.128 209.5,349.546 C209.5,353.964 213.082,357.546 217.5,357.546 C221.918,357.546 225.5,353.964 225.5,349.546 "/>
<path vector-effect="none" fill-rule="evenodd" d="M225.5,352.622 C225.5,348.203 221.918,344.622 217.5,344.622 C213.082,344.622 209.5,348.203 209.5,352.622 C209.5,357.04 213.082,360.622 217.5,360.622 C221.918,360.622 225.5,357.04 225.5,352.622 "/>
<path vector-effect="none" fill-rule="evenodd" d="M225.5,349.416 C225.5,344.998 221.918,341.416 217.5,341.416 C213.082,341.416 209.5,344.998 209.5,349.416 C209.5,353.835 213.082,357.416 217.5,357.416 C221.918,357.416 225.5,353.835 225.5,349.416 "/>
<path vector-effect="none" fill-rule="evenodd" d="M225.5,352.767 C225.5,348.348 221.918,344.767 217.5,344.767 C213.082,344.767 209.5,348.348 209.5,352.767 C209.5,357.185 213.082,360.767 217.5,360.767 C221.918,360.767 225.5,357.185 225.5,352.767 "/>
<path vector-effect="none" fill-rule="evenodd" d="M279.75,152.395 C279.75,147.977 276.168,144.395 271.75,144.395 C267.332,144.395 263.75,147.977 263.75,152.395 C263.75,156.814 267.332,160.395 271.75,160.395 C276.168,160.395 279.75,156.814 279.75,152.395 "/>
<path vector-effect="none" fill-rule="evenodd" d="M279.75,154.059 C279.75,149.641 276.168,146.059 271.75,146.059 C267.332,146.059 263.75,149.641 263.75,154.059 C263.75,158.478 267.332,162.059 271.75,162.059 C276.168,162.059 279.75,158.478 279.75,154.059 "/>
<path vector-effect="none" fill-rule="evenodd" d="M279.75,158.986 C279.75,154.568 276.168,150.986 271.75,150.986 C267.332,150.986 263.75,154.568 263.75,158.986 C263.75,163.405 267.332,166.986 271.75,166.986 C276.168,166.986 279.75,163.405 279.75,158.986 "/>
<path vector-effect="none" fill-rule="evenodd" d="M279.75,154.74 C279.75,150.322 276.168,146.74 271.75,146.74 C267.332,146.74 263.75,150.322 263.75,154.74 C263.75,159.158 267.332,162.74 271.75,162.74 C276.168,162.74 279.75,159.158 279.75,154.74 "/>
<path vector-effect="none" fill-rule="evenodd" d="M279.75,161.37 C279.75,156.951 276.168,153.37 271.75,153.37 C267.332,153.37 263.75,156.951 263.75,161.37 C263.75,165.788 267.332,169.37 271.75,169.37 C276.168,169.37 279.75,165.788 279.75,161.37 "/>
<path vector-effect="none" fill-rule="evenodd" d="M334,130.124 C334,125.706 330.418,122.124 326,122.124 C321.582,122.124 318,125.706 318,130.124 C318,134.542 321.582,138.124 326,138.124 C330.418,138.124 334,134.542 334,130.124 "/>
<path vector-effect="none" fill-rule="evenodd" d="M334,119.676 C334,115.258 330.418,111.676 326,111.676 C321.582,111.676 318,115.258 318,119.676 C318,124.094 321.582,127.676 326,127.676 C330.418,127.676 334,124.094 334,119.676 "/>
<path vector-effect="none" fill-rule="evenodd" d="M334,125.377 C334,120.959 330.418,117.377 326,117.377 C321.582,117.377 318,120.959 318,125.377 C318,129.795 321.582,133.377 326,133.377 C330.418,133.377 334,129.795 334,125.377 "/>
<path vector-effect="none" fill-rule="evenodd" d="M334,126.479 C334,122.061 330.418,118.479 326,118.479 C321.582,118.479 318,122.061 318,126.479 C318,130.898 321.582,134.479 326,134.479 C330.418,134.479 334,130.898 334,126.479 "/>
<path vector-effect="none" fill-rule="evenodd" d="M334,135.144 C334,130.726 330.418,127.144 326,127.144 C321.582,127.144 318,130.726 318,135.144 C318,139.562 321.582,143.144 326,143.144 C330.418,143.144 334,139.562 334,135.144 "/>
<path vector-effect="none" fill-rule="evenodd" d="M388.25,129.106 C388.25,124.688 384.668,121.106 380.25,121.106 C375.832,121.106 372.25,124.688 372.25,129.106 C372.25,133.525 375.832,137.106 380.25,137.106 C384.668,137.106 388.25,133.525 388.25,129.106 "/>
<path vector-effect="none" fill-rule="evenodd" d="M388.25,118.768 C388.25,114.35 384.668,110.768 380.25,110.768 C375.832,110.768 372.25,114.35 372.25,118.768 C372.25,123.187 375.832,126.768 380.25,126.768 C384.668,126.768 388.25,123.187 388.25,118.768 "/>
<path vector-effect="none" fill-rule="evenodd" d="M388.25,123.018 C388.25,118.6 384.668,115.018 380.25,115.018 C375.832,115.018 372.25,118.6 372.25,123.018 C372.25,127.436 375.832,131.018 380.25,131.018 C384.668,131.018 388.25,127.436 388.25,123.018 "/>
<path vector-effect="none" fill-rule="evenodd" d="M388.25,118.252 C388.25,113.834 384.668,110.252 380.25,110.252 C375.832,110.252 372.25,113.834 372.25,118.252 C372.25,122.67 375.832,126.252 380.25,126.252 C384.668,126.252 388.25,122.67 388.25,118.252 "/>
<path vector-effect="none" fill-rule="evenodd" d="M388.25,115.291 C388.25,110.872 384.668,107.291 380.25,107.291 C375.832,107.291 372.25,110.872 372.25,115.291 C372.25,119.709 375.832,123.291 380.25,123.291 C384.668,123.291 388.25,119.709 388.25,115.291 "/>
<path vector-effect="none" fill-rule="evenodd" d="M442.5,112.611 C442.5,108.193 438.918,104.611 434.5,104.611 C430.082,104.611 426.5,108.193 426.5,112.611 C426.5,117.029 430.082,120.611 434.5,120.611 C438.918,120.611 442.5,117.029 442.5,112.611 "/>
<path vector-effect="none" fill-rule="evenodd" d="M442.5,118.572 C442.5,114.153 438.918,110.572 434.5,110.572 C430.082,110.572 426.5,114.153 426.5,118.572 C426.5,122.99 430.082,126.572 434.5,126.572 C438.918,126.572 442.5,122.99 442.5,118.572 "/>
<path vector-effect="none" fill-rule="evenodd" d="M442.5,126.002 C442.5,121.584 438.918,118.002 434.5,118.002 C430.082,118.002 426.5,121.584 426.5,126.002 C426.5,130.42 430.082,134.002 434.5,134.002 C438.918,134.002 442.5,130.42 442.5,126.002 "/>
<path vector-effect="none" fill-rule="evenodd" d="M442.5,126.123 C442.5,121.705 438.918,118.123 434.5,118.123 C430.082,118.123 426.5,121.705 426.5,126.123 C426.5,130.542 430.082,134.123 434.5,134.123 C438.918,134.123 442.5,130.542 442.5,126.123 "/>
<path vector-effect="none" fill-rule="evenodd" d="M442.5,129.672 C442.5,125.253 438.918,121.672 434.5,121.672 C430.082,121.672 426.5,125.253 426.5,129.672 C426.5,134.09 430.082,137.672 434.5,137.672 C438.918,137.672 442.5,134.09 442.5,129.672 "/>
<path vector-effect="none" fill-rule="evenodd" d="M496.75,238.025 C496.75,233.607 493.168,230.025 488.75,230.025 C484.332,230.025 480.75,233.607 480.75,238.025 C480.75,242.443 484.332,246.025 488.75,246.025 C493.168,246.025 496.75,242.443 496.75,238.025 "/>
<path vector-effect="none" fill-rule="evenodd" d="M496.75,231.494 C496.75,227.076 493.168,223.494 488.75,223.494 C484.332,223.494 480.75,227.076 480.75,231.494 C480.75,235.912 484.332,239.494 488.75,239.494 C493.168,239.494 496.75,235.912 496.75,231.494 "/>
<path vector-effect="none" fill-rule="evenodd" d="M496.75,234.03 C496.75,229.612 493.168,226.03 488.75,226.03 C484.332,226.03 480.75,229.612 480.75,234.03 C480.75,238.449 484.332,242.03 488.75,242.03 C493.168,242.03 496.75,238.449 496.75,234.03 "/>
<path vector-effect="none" fill-rule="evenodd" d="M496.75,231.937 C496.75,227.519 493.168,223.937 488.75,223.937 C484.332,223.937 480.75,227.519 480.75,231.937 C480.75,236.356 484.332,239.937 488.75,239.937 C493.168,239.937 496.75,236.356 496.75,231.937 "/>
<path vector-effect="none" fill-rule="evenodd" d="M496.75,228.81 C496.75,224.392 493.168,220.81 488.75,220.81 C484.332,220.81 480.75,224.392 480.75,228.81 C480.75,233.228 484.332,236.81 488.75,236.81 C493.168,236.81 496.75,233.228 496.75,228.81 "/>
<path vector-effect="none" fill-rule="evenodd" d="M551,250.07 C551,245.652 547.418,242.07 543,242.07 C538.582,242.07 535,245.652 535,250.07 C535,254.488 538.582,258.07 543,258.07 C547.418,258.07 551,254.488 551,250.07 "/>
<path vector-effect="none" fill-rule="evenodd" d="M551,257.378 C551,252.96 547.418,249.378 543,249.378 C538.582,249.378 535,252.96 535,257.378 C535,261.797 538.582,265.378 543,265.378 C547.418,265.378 551,261.797 551,257.378 "/>
<path vector-effect="none" fill-rule="evenodd" d="M551,256.996 C551,252.578 547.418,248.996 543,248.996 C538.582,248.996 535,252.578 535,256.996 C535,261.414 538.582,264.996 543,264.996 C547.418,264.996 551,261.414 551,256.996 "/>
<path vector-effect="none" fill-rule="evenodd" d="M551,253.937 C551,249.519 547.418,245.937 543,245.937 C538.582,245.937 535,249.519 535,253.937 C535,258.355 538.582,261.937 543,261.937 C547.418,261.937 551,258.355 551,253.937 "/>
<path vector-effect="none" fill-rule="evenodd" d="M551,259.38 C551,254.961 547.418,251.38 543,251.38 C538.582,251.38 535,254.961 535,259.38 C535,263.798 538.582,267.38 543,267.38 C547.418,267.38 551,263.798 551,259.38 "/>
<path vector-effect="none" fill-rule="evenodd" d="M605.25,285.131 C605.25,280.713 601.668,277.131 597.25,277.131 C592.832,277.131 589.25,280.713 589.25,285.131 C589.25,289.55 592.832,293.131 597.25,293.131 C601.668,293.131 605.25,289.55 605.25,285.131 "/>
<path vector-effect="none" fill-rule="evenodd" d="M605.25,281.232 C605.25,276.814 601.668,273.232 597.25,273.232 C592.832,273.232 589.25,276.814 589.25,281.232 C589.25,285.651 592.832,289.232 597.25,289.232 C601.668,289.232 605.25,285.651 605.25,281.232 "/>
<path vector-effect="none" fill-rule="evenodd" d="M605.25,285.013 C605.25,280.594 601.668,277.013 597.25,277.013 C592.832,277.013 589.25,280.594 589.25,285.013 C589.25,289.431 592.832,293.013 597.25,293.013 C601.668,293.013 605.25,289.431 605.25,285.013 "/>
<path vector-effect="none" fill-rule="evenodd" d="M605.25,282.572 C605.25,278.154 601.668,274.572 597.25,274.572 C592.832,274.572 589.25,278.154 589.25,282.572 C589.25,286.991 592.832,290.572 597.25,290.572 C601.668,290.572 605.25,286.991 605.25,282.572 "/>
<path vector-effect="none" fill-rule="evenodd" d="M605.25,281.781 C605.25,277.363 601.668,273.781 597.25,273.781 C592.832,273.781 589.25,277.363 589.25,281.781 C589.25,286.2 592.832,289.781 597.25,289.781 C601.668,289.781 605.25,286.2 605.25,281.781 "/>
<path vector-effect="none" fill-rule="evenodd" d="M659.5,309.737 C659.5,305.319 655.918,301.737 651.5,301.737 C647.082,301.737 643.5,305.319 643.5,309.737 C643.5,314.155 647.082,317.737 651.5,317.737 C655.918,317.737 659.5,314.155 659.5,309.737 "/>
<path vector-effect="none" fill-rule="evenodd" d="M659.5,311.476 C659.5,307.058 655.918,303.476 651.5,303.476 C647.082,303.476 643.5,307.058 643.5,311.476 C643.5,315.895 647.082,319.476 651.5,319.476 C655.918,319.476 659.5,315.895 659.5,311.476 "/>
<path vector-effect="none" fill-rule="evenodd" d="M659.5,306.701 C659.5,302.283 655.918,298.701 651.5,298.701 C647.082,298.701 643.5,302.283 643.5,306.701 C643.5,311.12 647.082,314.701 651.5,314.701 C655.918,314.701 659.5,311.12 659.5,306.701 "/>
<path vector-effect="none" fill-rule="evenodd" d="M659.5,306.348 C659.5,301.93 655.918,298.348 651.5,298.348 C647.082,298.348 643.5,301.93 643.5,306.348 C643.5,310.766 647.082,314.348 651.5,314.348 C655.918,314.348 659.5,310.766 659.5,306.348 "/>
<path vector-effect="none" fill-rule="evenodd" d="M659.5,305.973 C659.5,301.555 655.918,297.973 651.5,297.973 C647.082,297.973 643.5,301.555 643.5,305.973 C643.5,310.391 647.082,313.973 651.5,313.973 C655.918,313.973 659.5,310.391 659.5,305.973 "/>
<path vector-effect="none" fill-rule="evenodd" d="M713.75,332.158 C713.75,327.74 710.168,324.158 705.75,324.158 C701.332,324.158 697.75,327.74 697.75,332.158 C697.75,336.576 701.332,340.158 705.75,340.158 C710.168,340.158 713.75,336.576 713.75,332.158 "/>
<path vector-effect="none" fill-rule="evenodd" d="M713.75,332.559 C713.75,328.14 710.168,324.559 705.75,324.559 C701.332,324.559 697.75,328.14 697.75,332.559 C697.75,336.977 701.332,340.559 705.75,340.559 C710.168,340.559 713.75,336.977 713.75,332.559 "/>
<path vector-effect="none" fill-rule="evenodd" d="M713.75,329.521 C713.75,325.103 710.168,321.521 705.75,321.521 C701.332,321.521 697.75,325.103 697.75,329.521 C697.75,333.939 701.332,337.521 705.75,337.521 C710.168,337.521 713.75,333.939 713.75,329.521 "/>
<path vector-effect="none" fill-rule="evenodd" d="M713.75,328.116 C713.75,323.698 710.168,320.116 705.75,320.116 C701.332,320.116 697.75,323.698 697.75,328.116 C697.75,332.534 701.332,336.116 705.75,336.116 C710.168,336.116 713.75,332.534 713.75,328.116 "/>
<path vector-effect="none" fill-rule="evenodd" d="M713.75,332.555 C713.75,328.137 710.168,324.555 705.75,324.555 C701.332,324.555 697.75,328.137 697.75,332.555 C697.75,336.973 701.332,340.555 705.75,340.555 C710.168,340.555 713.75,336.973 713.75,332.555 "/>
<path vector-effect="none" fill-rule="evenodd" d="M768,350.633 C768,346.214 764.418,342.633 760,342.633 C755.582,342.633 752,346.214 752,350.633 C752,355.051 755.582,358.633 760,358.633 C764.418,358.633 768,355.051 768,350.633 "/>
<path vector-effect="none" fill-rule="evenodd" d="M768,348.812 C768,344.394 764.418,340.812 760,340.812 C755.582,340.812 752,344.394 752,348.812 C752,353.23 755.582,356.812 760,356.812 C764.418,356.812 768,353.23 768,348.812 "/>
<path vector-effect="none" fill-rule="evenodd" d="M768,353.322 C768,348.904 764.418,345.322 760,345.322 C755.582,345.322 752,348.904 752,353.322 C752,357.74 755.582,361.322 760,361.322 C764.418,361.322 768,357.74 768,353.322 "/>
<path vector-effect="none" fill-rule="evenodd" d="M768,348.181 C768,343.762 764.418,340.181 760,340.181 C755.582,340.181 752,343.762 752,348.181 C752,352.599 755.582,356.181 760,356.181 C764.418,356.181 768,352.599 768,348.181 "/>
<path vector-effect="none" fill-rule="evenodd" d="M768,349.204 C768,344.786 764.418,341.204 760,341.204 C755.582,341.204 752,344.786 752,349.204 C752,353.622 755.582,357.204 760,357.204 C764.418,357.204 768,353.622 768,349.204 "/>
</g>

<g fill="#212121" fill-opacity="1" stroke="none" transform="matrix(0.5,0,0,0.5,165.75,231.5)"
font-family=".AppleSystemUIFont" font-size="13" font-weight="400" font-style="normal" 
>
<path vector-effect="none" fill-rule="evenodd" d="M13.1592,-15.7803 L13.1592,-13.9004 L7.8418,-13.9004 L7.8418,0 L5.67188,0 L5.67188,-13.9004 L0.354492,-13.9004 L0.354492,-15.7803 L13.1592,-15.7803 M14.043,-11.4512 L16.0088,-11.4512 L16.0088,0 L14.043,0 L14.043,-11.4512 M14.043,-15.7803 L16.0088,-15.7803 L16.0088,-13.5889 L14.043,-13.5889 L14.043,-15.7803 M18.918,-11.5049 L20.8301,-11.5049 L20.8301,-9.87207 C21.2884,-10.4378 21.7038,-10.8496 22.0762,-11.1074 C22.7135,-11.5443 23.4368,-11.7627 24.2461,-11.7627 C25.1628,-11.7627 25.9004,-11.5371 26.459,-11.0859 C26.7741,-10.8281 27.0605,-10.4486 27.3184,-9.94727 C27.748,-10.5632 28.2529,-11.0197 28.833,-11.3169 C29.4131,-11.6141 30.0648,-11.7627 30.7881,-11.7627 C32.335,-11.7627 33.3877,-11.2041 33.9463,-10.0869 C34.2471,-9.48535 34.3975,-8.67611 34.3975,-7.65918 L34.3975,0 L32.3887,0 L32.3887,-7.99219 C32.3887,-8.75846 32.1971,-9.28483 31.814,-9.57129 C31.4308,-9.85775 30.9635,-10.001 30.4121,-10.001 C29.653,-10.001 28.9995,-9.74674 28.4517,-9.23828 C27.9038,-8.72982 27.6299,-7.88118 27.6299,-6.69238 L27.6299,0 L25.6641,0 L25.6641,-7.50879 C25.6641,-8.28939 25.571,-8.85872 25.3848,-9.2168 C25.0911,-9.75391 24.5433,-10.0225 23.7412,-10.0225 C23.0107,-10.0225 22.3465,-9.73958 21.7485,-9.17383 C21.1506,-8.60807 20.8516,-7.58398 20.8516,-6.10156 L20.8516,0 L18.918,0 L18.918,-11.5049 M42.0215,-11.7627 C42.8379,-11.7627 43.6292,-11.5711 44.3955,-11.188 C45.1618,-10.8049 45.7454,-10.3089 46.1465,-9.7002 C46.5332,-9.12012 46.791,-8.44336 46.9199,-7.66992 C47.0345,-7.13997 47.0918,-6.29492 47.0918,-5.13477 L38.6592,-5.13477 C38.695,-3.96745 38.9707,-3.03109 39.4863,-2.32568 C40.002,-1.62028 40.8005,-1.26758 41.8818,-1.26758 C42.8916,-1.26758 43.6973,-1.60059 44.2988,-2.2666 C44.6426,-2.65332 44.8861,-3.10091 45.0293,-3.60938 L46.9307,-3.60938 C46.8805,-3.18685 46.714,-2.71598 46.4312,-2.19678 C46.1483,-1.67757 45.8314,-1.25326 45.4805,-0.923828 C44.8932,-0.350911 44.1663,0.0358073 43.2998,0.236328 C42.8343,0.350911 42.3079,0.408203 41.7207,0.408203 C40.2884,0.408203 39.0745,-0.112793 38.0791,-1.15479 C37.0837,-2.19678 36.5859,-3.65592 36.5859,-5.53223 C36.5859,-7.37988 37.0872,-8.88021 38.0898,-10.0332 C39.0924,-11.1862 40.403,-11.7627 42.0215,-11.7627 M45.1045,-6.6709 C45.0257,-7.50879 44.8431,-8.17839 44.5566,-8.67969 C44.0267,-9.61068 43.1423,-10.0762 41.9033,-10.0762 C41.0153,-10.0762 40.2705,-9.7557 39.6689,-9.11475 C39.0674,-8.4738 38.7487,-7.65918 38.7129,-6.6709 L45.1045,-6.6709"/>
</g>

<g fill="#212121" fill-opacity="1" stroke="#212121" stroke-opacity="1" stroke-width="1" stroke-linecap="square" stroke-linejoin="round" transform="matrix(0.5,0,0,0.5,-39.5,-17.5)"
font-family=".AppleSystemUIFont" font-size="13" font-weight="400" font-style="normal" 
>
<polyline fill="none" vector-effect="none" points="109,448 760,448 " />
<polyline fill="none" vector-effect="none" points="109,38 760,38 " />
<polyline fill="none" vector-effect="none" points="109,448 109,441.49 " />
<polyline fill="none" vector-effect="none" points="109,44.51 109,38 " />
<polyline fill="none" vector-effect="none" points="163.25,448 163.25,441.49 " />
<polyline fill="none" vector-effect="none" points="163.25,44.51 163.25,38 " />
<polyline fill="none" vector-effect="none" points="217.5,448 217.5,441.49 " />
<polyline fill="none" vector-effect="none" points="217.5,44.51 217.5,38 " />
<polyline fill="none" vector-effect="none" points="271.75,448 271.75,441.49 " />
<polyline fill="none" vector-effect="none" points="271.75,44.51 271.75,38 " />
<polyline fill="none" vector-effect="none" points="326,448 326,441.49 " />
<polyline fill="none" vector-effect="none" points="326,44.51 326,38 " />
<polyline fill="none" vector-effect="none" points="380.25,448 380.25,441.49 " />
<polyline fill="none" vector-effect="none" points="380.25,44.51 380.25,38 " />
<polyline fill="none" vector-effect="none" points="434.5,448 434.5,441.49 " />
<polyline fill="none" vector-effect="none" points="434.5,44.51 434.5,38 " />
<polyline fill="none" vector-effect="none" points="488.75,448 488.75,441.49 " />
<polyline fill="none" vector-effect="none" points="488.75,44.51 488.75,38 " />
<polyline fill="none" vector-effect="none" points="543,448 543,441.49 " />
<polyline fill="none" vector-effect="none" points="543,44.51 543,38 " />
<polyline fill="none" vector-effect="none" points="597.25,448 597.25,441.49 " />
<polyline fill="none" vector-effect="none" points="597.25,44.51 597.25,38 " />
<polyline fill="none" vector-effect="none" points="651.5,448 651.5,441.49 " />
<polyline fill="none" vector-effect="none" points="651.5,44.51 651.5,38 " />
<polyline fill="none" vector-effect="none" points="705.75,448 705.75,441.49 " />
<polyline fill="none" vector-effect="none" points="705.75,44.51 705.75,38 " />
<polyline fill="none" vector-effect="none" points="760,448 760,441.49 " />
<polyline fill="none" vector-effect="none" points="760,44.51 760,38 " />
</g>

<g fill="#212121" fill-opacity="1" stroke="none" transform="matrix(0.5,0,0,0.5,12.25,218)"
font-family=".AppleSystemUIFont" font-size="13" font-weight="400" font-style="normal" 
>
<path vector-effect="none" fill-rule="evenodd" d="M5.41016,-13.9844 C7.22005,-13.9844 8.52865,-13.2389 9.33594,-11.748 C9.96094,-10.5957 10.2734,-9.01693 10.2734,-7.01172 C10.2734,-5.11068 9.99023,-3.53841 9.42383,-2.29492 C8.60352,-0.511068 7.26237,0.380859 5.40039,0.380859 C3.7207,0.380859 2.4707,-0.348307 1.65039,-1.80664 C0.966797,-3.02409 0.625,-4.6582 0.625,-6.70898 C0.625,-8.29753 0.830078,-9.66146 1.24023,-10.8008 C2.00846,-12.9232 3.39844,-13.9844 5.41016,-13.9844 M5.39063,-1.2207 C6.30208,-1.2207 7.02799,-1.62435 7.56836,-2.43164 C8.10872,-3.23893 8.37891,-4.74284 8.37891,-6.94336 C8.37891,-8.5319 8.18359,-9.83887 7.79297,-10.8643 C7.40234,-11.8896 6.64388,-12.4023 5.51758,-12.4023 C4.48242,-12.4023 3.72559,-11.9157 3.24707,-10.9424 C2.76855,-9.96908 2.5293,-8.53516 2.5293,-6.64063 C2.5293,-5.21484 2.68229,-4.06901 2.98828,-3.20313 C3.45703,-1.88151 4.25781,-1.2207 5.39063,-1.2207 "/>
</g>

<g fill="#212121" fill-opacity="1" stroke="none" transform="matrix(0.5,0,0,0.5,39.375,218)"
font-family=".AppleSystemUIFont" font-size="13" font-weight="400" font-style="normal" 
>
<path vector-effect="none" fill-rule="evenodd" d="M1.91406,-9.90234 L1.91406,-11.25 C3.18359,-11.3737 4.06901,-11.5804 4.57031,-11.8701 C5.07161,-12.1598 5.44596,-12.8451 5.69336,-13.9258 L7.08008,-13.9258 L7.08008,0 L5.20508,0 L5.20508,-9.90234 L1.91406,-9.90234"/>
</g>

<g fill="#212121" fill-opacity="1" stroke="none" transform="matrix(0.5,0,0,0.5,66.5,218)"
font-family=".AppleSystemUIFont" font-size="13" font-weight="400" font-style="normal" 
>
<path vector-effect="none" fill-rule="evenodd" d="M0.625,0 C0.690104,-1.20443 0.939128,-2.2526 1.37207,-3.14453 C1.80501,-4.03646 2.64974,-4.84701 3.90625,-5.57617 L5.78125,-6.66016 C6.62109,-7.14844 7.21029,-7.5651 7.54883,-7.91016 C8.08268,-8.45052 8.34961,-9.06901 8.34961,-9.76563 C8.34961,-10.5794 8.10547,-11.2256 7.61719,-11.7041 C7.12891,-12.1826 6.47786,-12.4219 5.66406,-12.4219 C4.45964,-12.4219 3.6263,-11.9661 3.16406,-11.0547 C2.91667,-10.5664 2.77995,-9.88932 2.75391,-9.02344 L0.966797,-9.02344 C0.986328,-10.2409 1.21094,-11.2337 1.64063,-12.002 C2.40234,-13.3561 3.74674,-14.0332 5.67383,-14.0332 C7.27539,-14.0332 8.44564,-13.6003 9.18457,-12.7344 C9.9235,-11.8685 10.293,-10.9049 10.293,-9.84375 C10.293,-8.72396 9.89909,-7.76693 9.11133,-6.97266 C8.6556,-6.51042 7.83854,-5.95052 6.66016,-5.29297 L5.32227,-4.55078 C4.68424,-4.19922 4.18294,-3.86393 3.81836,-3.54492 C3.16732,-2.97852 2.75716,-2.35026 2.58789,-1.66016 L10.2246,-1.66016 L10.2246,0 L0.625,0"/>
</g>

<g fill="#212121" fill-opacity="1" stroke="none" transform="matrix(0.5,0,0,0.5,93.625,218)"
font-family=".AppleSystemUIFont" font-size="13" font-weight="400" font-style="normal" 
>
<path vector-effect="none" fill-rule="evenodd" d="M5.19531,0.380859 C3.54167,0.380859 2.34212,-0.0732422 1.59668,-0.981445 C0.851237,-1.88965 0.478516,-2.99479 0.478516,-4.29688 L2.31445,-4.29688 C2.39258,-3.39193 2.56185,-2.73438 2.82227,-2.32422 C3.27799,-1.58854 4.10156,-1.2207 5.29297,-1.2207 C6.21745,-1.2207 6.95964,-1.4681 7.51953,-1.96289 C8.07943,-2.45768 8.35938,-3.0957 8.35938,-3.87695 C8.35938,-4.84049 8.06478,-5.51432 7.47559,-5.89844 C6.88639,-6.28255 6.06771,-6.47461 5.01953,-6.47461 C4.90234,-6.47461 4.78353,-6.47298 4.66309,-6.46973 C4.54264,-6.46647 4.42057,-6.46159 4.29688,-6.45508 L4.29688,-8.00781 C4.47917,-7.98828 4.63216,-7.97526 4.75586,-7.96875 C4.87956,-7.96224 5.01302,-7.95898 5.15625,-7.95898 C5.8138,-7.95898 6.35417,-8.06315 6.77734,-8.27148 C7.51953,-8.63607 7.89063,-9.28711 7.89063,-10.2246 C7.89063,-10.9212 7.64323,-11.4583 7.14844,-11.8359 C6.65365,-12.2135 6.07747,-12.4023 5.41992,-12.4023 C4.24805,-12.4023 3.4375,-12.0117 2.98828,-11.2305 C2.74089,-10.8008 2.60091,-10.1888 2.56836,-9.39453 L0.830078,-9.39453 C0.830078,-10.4362 1.03841,-11.3216 1.45508,-12.0508 C2.17122,-13.3529 3.43099,-14.0039 5.23438,-14.0039 C6.66016,-14.0039 7.76367,-13.6865 8.54492,-13.0518 C9.32617,-12.417 9.7168,-11.4974 9.7168,-10.293 C9.7168,-9.43359 9.48568,-8.73698 9.02344,-8.20313 C8.73698,-7.87109 8.36589,-7.61068 7.91016,-7.42188 C8.64583,-7.22005 9.22038,-6.83105 9.63379,-6.25488 C10.0472,-5.67871 10.2539,-4.97396 10.2539,-4.14063 C10.2539,-2.80599 9.81445,-1.71875 8.93555,-0.878906 C8.05664,-0.0390625 6.8099,0.380859 5.19531,0.380859 "/>
</g>

<g fill="#212121" fill-opacity="1" stroke="none" transform="matrix(0.5,0,0,0.5,120.75,218)"
font-family=".AppleSystemUIFont" font-size="13" font-weight="400" font-style="normal" 
>
<path vector-effect="none" fill-rule="evenodd" d="M6.61133,-4.95117 L6.61133,-11.2891 L2.12891,-4.95117 L6.61133,-4.95117 M6.64063,0 L6.64063,-3.41797 L0.507813,-3.41797 L0.507813,-5.13672 L6.91406,-14.0234 L8.39844,-14.0234 L8.39844,-4.95117 L10.459,-4.95117 L10.459,-3.41797 L8.39844,-3.41797 L8.39844,0 L6.64063,0"/>
</g>

<g fill="#212121" fill-opacity="1" stroke="none" transform="matrix(0.5,0,0,0.5,147.875,218)"
font-family=".AppleSystemUIFont" font-size="13" font-weight="400" font-style="normal" 
>
<path vector-effect="none" fill-rule="evenodd" d="M2.4707,-3.56445 C2.58789,-2.56185 3.05339,-1.86849 3.86719,-1.48438 C4.28385,-1.28906 4.76563,-1.19141 5.3125,-1.19141 C6.35417,-1.19141 7.12565,-1.52344 7.62695,-2.1875 C8.12826,-2.85156 8.37891,-3.58724 8.37891,-4.39453 C8.37891,-5.37109 8.08105,-6.1263 7.48535,-6.66016 C6.88965,-7.19401 6.17513,-7.46094 5.3418,-7.46094 C4.73633,-7.46094 4.21712,-7.34375 3.78418,-7.10938 C3.35124,-6.875 2.98177,-6.54948 2.67578,-6.13281 L1.15234,-6.2207 L2.2168,-13.75 L9.48242,-13.75 L9.48242,-12.0508 L3.53516,-12.0508 L2.93945,-8.16406 C3.26497,-8.41146 3.57422,-8.59701 3.86719,-8.7207 C4.38802,-8.93555 4.99023,-9.04297 5.67383,-9.04297 C6.95638,-9.04297 8.04362,-8.62956 8.93555,-7.80273 C9.82747,-6.97591 10.2734,-5.92773 10.2734,-4.6582 C10.2734,-3.33659 9.86491,-2.17122 9.04785,-1.16211 C8.23079,-0.152995 6.92708,0.351563 5.13672,0.351563 C3.9974,0.351563 2.98991,0.0309245 2.11426,-0.610352 C1.23861,-1.25163 0.748698,-2.23633 0.644531,-3.56445 L2.4707,-3.56445"/>
</g>

<g fill="#212121" fill-opacity="1" stroke="none" transform="matrix(0.5,0,0,0.5,175,218)"
font-family=".AppleSystemUIFont" font-size="13" font-weight="400" font-style="normal" 
>
<path vector-effect="none" fill-rule="evenodd" d="M5.84961,-14.043 C7.41211,-14.043 8.50098,-13.6377 9.11621,-12.8271 C9.73145,-12.0166 10.0391,-11.1816 10.0391,-10.3223 L8.30078,-10.3223 C8.19661,-10.8757 8.0306,-11.3086 7.80273,-11.6211 C7.37956,-12.207 6.73828,-12.5 5.87891,-12.5 C4.89583,-12.5 4.11458,-12.0459 3.53516,-11.1377 C2.95573,-10.2295 2.63346,-8.92904 2.56836,-7.23633 C2.97201,-7.82878 3.47982,-8.27148 4.0918,-8.56445 C4.65169,-8.82487 5.27669,-8.95508 5.9668,-8.95508 C7.13867,-8.95508 8.16081,-8.58073 9.0332,-7.83203 C9.9056,-7.08333 10.3418,-5.9668 10.3418,-4.48242 C10.3418,-3.21289 9.92839,-2.08822 9.10156,-1.1084 C8.27474,-0.128581 7.09635,0.361328 5.56641,0.361328 C4.25781,0.361328 3.12826,-0.135091 2.17773,-1.12793 C1.22721,-2.12077 0.751953,-3.79232 0.751953,-6.14258 C0.751953,-7.88086 0.963542,-9.35547 1.38672,-10.5664 C2.20052,-12.8841 3.68815,-14.043 5.84961,-14.043 M5.72266,-1.20117 C6.64714,-1.20117 7.33887,-1.51204 7.79785,-2.13379 C8.25684,-2.75553 8.48633,-3.48958 8.48633,-4.33594 C8.48633,-5.05208 8.28125,-5.73405 7.87109,-6.38184 C7.46094,-7.02962 6.71549,-7.35352 5.63477,-7.35352 C4.87956,-7.35352 4.21712,-7.10286 3.64746,-6.60156 C3.0778,-6.10026 2.79297,-5.34505 2.79297,-4.33594 C2.79297,-3.45052 3.05176,-2.70671 3.56934,-2.10449 C4.08691,-1.50228 4.80469,-1.20117 5.72266,-1.20117 "/>
</g>

<g fill="#212121" fill-opacity="1" stroke="none" transform="matrix(0.5,0,0,0.5,202.125,218)"
font-family=".AppleSystemUIFont" font-size="13" font-weight="400" font-style="normal" 
>
<path vector-effect="none" fill-rule="evenodd" d="M10.459,-13.75 L10.459,-12.2168 C10.0098,-11.7806 9.41243,-11.0221 8.66699,-9.94141 C7.92155,-8.86068 7.26237,-7.69531 6.68945,-6.44531 C6.12305,-5.22786 5.69336,-4.11784 5.40039,-3.11523 C5.21159,-2.4707 4.96745,-1.43229 4.66797,0 L2.72461,0 C3.16732,-2.66927 4.14388,-5.32552 5.6543,-7.96875 C6.54622,-9.51823 7.48372,-10.8561 8.4668,-11.9824 L0.732422,-11.9824 L0.732422,-13.75 L10.459,-13.75"/>
</g>

<g fill="#212121" fill-opacity="1" stroke="none" transform="matrix(0.5,0,0,0.5,229.25,218)"
font-family=".AppleSystemUIFont" font-size="13" font-weight="400" font-style="normal" 
>
<path vector-effect="none" fill-rule="evenodd" d="M5.43945,-8.125 C6.21419,-8.125 6.81966,-8.34147 7.25586,-8.77441 C7.69206,-9.20736 7.91016,-9.72331 7.91016,-10.3223 C7.91016,-10.8431 7.70182,-11.3216 7.28516,-11.7578 C6.86849,-12.194 6.23372,-12.4121 5.38086,-12.4121 C4.53451,-12.4121 3.92253,-12.194 3.54492,-11.7578 C3.16732,-11.3216 2.97852,-10.8105 2.97852,-10.2246 C2.97852,-9.56706 3.22266,-9.05273 3.71094,-8.68164 C4.19922,-8.31055 4.77539,-8.125 5.43945,-8.125 M5.54688,-1.20117 C6.36068,-1.20117 7.03613,-1.4209 7.57324,-1.86035 C8.11035,-2.2998 8.37891,-2.95573 8.37891,-3.82813 C8.37891,-4.73307 8.10221,-5.41992 7.54883,-5.88867 C6.99544,-6.35742 6.28581,-6.5918 5.41992,-6.5918 C4.58008,-6.5918 3.89486,-6.35254 3.36426,-5.87402 C2.83366,-5.39551 2.56836,-4.73307 2.56836,-3.88672 C2.56836,-3.15755 2.81087,-2.52767 3.2959,-1.99707 C3.78092,-1.46647 4.53125,-1.20117 5.54688,-1.20117 M3.04688,-7.45117 C2.55859,-7.65951 2.17773,-7.90365 1.9043,-8.18359 C1.38997,-8.70443 1.13281,-9.38151 1.13281,-10.2148 C1.13281,-11.2565 1.51042,-12.1517 2.26563,-12.9004 C3.02083,-13.6491 4.0918,-14.0234 5.47852,-14.0234 C6.81966,-14.0234 7.87109,-13.6702 8.63281,-12.9639 C9.39453,-12.2575 9.77539,-11.4323 9.77539,-10.4883 C9.77539,-9.61589 9.55404,-8.90951 9.11133,-8.36914 C8.86393,-8.06315 8.47982,-7.76367 7.95898,-7.4707 C8.53841,-7.20378 8.99414,-6.89779 9.32617,-6.55273 C9.94466,-5.90169 10.2539,-5.05534 10.2539,-4.01367 C10.2539,-2.7832 9.84049,-1.73991 9.01367,-0.883789 C8.18685,-0.0276693 7.01823,0.400391 5.50781,0.400391 C4.14714,0.400391 2.99642,0.0309245 2.05566,-0.708008 C1.11491,-1.44694 0.644531,-2.51953 0.644531,-3.92578 C0.644531,-4.7526 0.846354,-5.46712 1.25,-6.06934 C1.65365,-6.67155 2.2526,-7.13216 3.04688,-7.45117 "/>
</g>

<g fill="#212121" fill-opacity="1" stroke="none" transform="matrix(0.5,0,0,0.5,256.375,218)"
font-family=".AppleSystemUIFont" font-size="13" font-weight="400" font-style="normal" 
>
<path vector-effect="none" fill-rule="evenodd" d="M2.65625,-3.37891 C2.70833,-2.40885 3.08268,-1.73828 3.7793,-1.36719 C4.13737,-1.17188 4.54102,-1.07422 4.99023,-1.07422 C5.83008,-1.07422 6.54622,-1.42415 7.13867,-2.12402 C7.73112,-2.82389 8.15104,-4.24479 8.39844,-6.38672 C8.00781,-5.76823 7.52441,-5.33366 6.94824,-5.08301 C6.37207,-4.83236 5.75195,-4.70703 5.08789,-4.70703 C3.74023,-4.70703 2.67415,-5.12695 1.88965,-5.9668 C1.10514,-6.80664 0.712891,-7.88737 0.712891,-9.20898 C0.712891,-10.4785 1.10026,-11.5951 1.875,-12.5586 C2.64974,-13.5221 3.79232,-14.0039 5.30273,-14.0039 C7.34049,-14.0039 8.74674,-13.0859 9.52148,-11.25 C9.95117,-10.2409 10.166,-8.97786 10.166,-7.46094 C10.166,-5.7487 9.90885,-4.23177 9.39453,-2.91016 C8.54167,-0.709635 7.09635,0.390625 5.05859,0.390625 C3.69141,0.390625 2.65299,0.0325521 1.94336,-0.683594 C1.23372,-1.39974 0.878906,-2.29818 0.878906,-3.37891 L2.65625,-3.37891 M5.32227,-6.25 C6.01888,-6.25 6.65527,-6.47949 7.23145,-6.93848 C7.80762,-7.39746 8.0957,-8.19987 8.0957,-9.3457 C8.0957,-10.3743 7.83691,-11.141 7.31934,-11.6455 C6.80176,-12.1501 6.14258,-12.4023 5.3418,-12.4023 C4.48242,-12.4023 3.80046,-12.1143 3.2959,-11.5381 C2.79134,-10.9619 2.53906,-10.1921 2.53906,-9.22852 C2.53906,-8.31706 2.76042,-7.59277 3.20313,-7.05566 C3.64583,-6.51855 4.35221,-6.25 5.32227,-6.25 "/>
</g>

<g fill="#212121" fill-opacity="1" stroke="none" transform="matrix(0.5,0,0,0.5,280.75,218)"
font-family=".AppleSystemUIFont" font-size="13" font-weight="400" font-style="normal" 
>
<path vector-effect="none" fill-rule="evenodd" d="M1.91406,-9.90234 L1.91406,-11.25 C3.18359,-11.3737 4.06901,-11.5804 4.57031,-11.8701 C5.07161,-12.1598 5.44596,-12.8451 5.69336,-13.9258 L7.08008,-13.9258 L7.08008,0 L5.20508,0 L5.20508,-9.90234 L1.91406,-9.90234 M16.5195,-13.9844 C18.3294,-13.9844 19.638,-13.2389 20.4453,-11.748 C21.0703,-10.5957 21.3828,-9.01693 21.3828,-7.01172 C21.3828,-5.11068 21.0996,-3.53841 20.5332,-2.29492 C19.7129,-0.511068 18.3717,0.380859 16.5098,0.380859 C14.8301,0.380859 13.5801,-0.348307 12.7598,-1.80664 C12.0762,-3.02409 11.7344,-4.6582 11.7344,-6.70898 C11.7344,-8.29753 11.9395,-9.66146 12.3496,-10.8008 C13.1178,-12.9232 14.5078,-13.9844 16.5195,-13.9844 M16.5,-1.2207 C17.4115,-1.2207 18.1374,-1.62435 18.6777,-2.43164 C19.2181,-3.23893 19.4883,-4.74284 19.4883,-6.94336 C19.4883,-8.5319 19.293,-9.83887 18.9023,-10.8643 C18.5117,-11.8896 17.7533,-12.4023 16.627,-12.4023 C15.5918,-12.4023 14.835,-11.9157 14.3564,-10.9424 C13.8779,-9.96908 13.6387,-8.53516 13.6387,-6.64063 C13.6387,-5.21484 13.7917,-4.06901 14.0977,-3.20313 C14.5664,-1.88151 15.3672,-1.2207 16.5,-1.2207 "/>
</g>

<g fill="#212121" fill-opacity="1" stroke="none" transform="matrix(0.5,0,0,0.5,308.125,218)"
font-family=".AppleSystemUIFont" font-size="13" font-weight="400" font-style="normal" 
>
<path vector-effect="none" fill-rule="evenodd" d="M1.91406,-9.90234 L1.91406,-11.25 C3.18359,-11.3737 4.06901,-11.5804 4.57031,-11.8701 C5.07161,-12.1598 5.44596,-12.8451 5.69336,-13.9258 L7.08008,-13.9258 L7.08008,0 L5.20508,0 L5.20508,-9.90234 L1.91406,-9.90234 M11.5547,-9.90234 L11.5547,-11.25 C12.8242,-11.3737 13.7096,-11.5804 14.2109,-11.8701 C14.7122,-12.1598 15.0866,-12.8451 15.334,-13.9258 L16.7207,-13.9258 L16.7207,0 L14.8457,0 L14.8457,-9.90234 L11.5547,-9.90234"/>
</g>

<g fill="#212121" fill-opacity="1" stroke="none" transform="matrix(0.5,0,0,0.5,335,218)"
font-family=".AppleSystemUIFont" font-size="13" font-weight="400" font-style="normal" 
>
<path vector-effect="none" fill-rule="evenodd" d="M1.91406,-9.90234 L1.91406,-11.25 C3.18359,-11.3737 4.06901,-11.5804 4.57031,-11.8701 C5.07161,-12.1598 5.44596,-12.8451 5.69336,-13.9258 L7.08008,-13.9258 L7.08008,0 L5.20508,0 L5.20508,-9.90234 L1.91406,-9.90234 M11.7344,0 C11.7995,-1.20443 12.0485,-2.2526 12.4814,-3.14453 C12.9144,-4.03646 13.7591,-4.84701 15.0156,-5.57617 L16.8906,-6.66016 C17.7305,-7.14844 18.3197,-7.5651 18.6582,-7.91016 C19.1921,-8.45052 19.459,-9.06901 19.459,-9.76563 C19.459,-10.5794 19.2148,-11.2256 18.7266,-11.7041 C18.2383,-12.1826 17.5872,-12.4219 16.7734,-12.4219 C15.569,-12.4219 14.7357,-11.9661 14.2734,-11.0547 C14.026,-10.5664 13.8893,-9.88932 13.8633,-9.02344 L12.0762,-9.02344 C12.0957,-10.2409 12.3203,-11.2337 12.75,-12.002 C13.5117,-13.3561 14.8561,-14.0332 16.7832,-14.0332 C18.3848,-14.0332 19.555,-13.6003 20.2939,-12.7344 C21.0329,-11.8685 21.4023,-10.9049 21.4023,-9.84375 C21.4023,-8.72396 21.0085,-7.76693 20.2207,-6.97266 C19.765,-6.51042 18.9479,-5.95052 17.7695,-5.29297 L16.4316,-4.55078 C15.7936,-4.19922 15.2923,-3.86393 14.9277,-3.54492 C14.2767,-2.97852 13.8665,-2.35026 13.6973,-1.66016 L21.334,-1.66016 L21.334,0 L11.7344,0"/>
</g>

<g fill="#212121" fill-opacity="1" stroke="#212121" stroke-opacity="1" stroke-width="1" stroke-linecap="square" stroke-linejoin="round" transform="matrix(0.5,0,0,0.5,-39.5,-17.5)"
font-family=".AppleSystemUIFont" font-size="13" font-weight="400" font-style="normal" 
>
<polyline fill="none" vector-effect="none" points="109,448 109,38 " />
<polyline fill="none" vector-effect="none" points="760,448 760,38 " />
</g>

<g fill="#212121" fill-opacity="1" stroke="none" transform="matrix(0,-0.5,0.5,0,9.5,131.25)"
font-family=".AppleSystemUIFont" font-size="13" font-weight="400" font-style="normal" 
>
<path vector-effect="none" fill-rule="evenodd" d="M1.87988,-15.7803 L13.3848,-15.7803 L13.3848,-13.8467 L3.96387,-13.8467 L3.96387,-9.05566 L12.6758,-9.05566 L12.6758,-7.22949 L3.96387,-7.22949 L3.96387,-1.87988 L13.5459,-1.87988 L13.5459,0 L1.87988,0 L1.87988,-15.7803 M14.9941,-11.5049 L17.4971,-11.5049 L20.1396,-7.45508 L22.8145,-11.5049 L25.167,-11.4512 L21.2891,-5.89746 L25.3389,0 L22.8682,0 L20.0107,-4.31836 L17.2393,0 L14.79,0 L18.8398,-5.89746 L14.9941,-11.5049 M31.9453,-1.2998 C32.8477,-1.2998 33.5978,-1.67757 34.1958,-2.43311 C34.7938,-3.18864 35.0928,-4.31836 35.0928,-5.82227 C35.0928,-6.73893 34.9603,-7.52669 34.6953,-8.18555 C34.194,-9.45313 33.2773,-10.0869 31.9453,-10.0869 C30.6061,-10.0869 29.6895,-9.41732 29.1953,-8.07813 C28.9303,-7.36198 28.7979,-6.45247 28.7979,-5.34961 C28.7979,-4.46159 28.9303,-3.70605 29.1953,-3.08301 C29.6966,-1.89421 30.6133,-1.2998 31.9453,-1.2998 M26.9395,-11.4512 L28.8193,-11.4512 L28.8193,-9.92578 C29.2061,-10.4486 29.6286,-10.8532 30.0869,-11.1396 C30.7386,-11.5693 31.5049,-11.7842 32.3857,-11.7842 C33.6891,-11.7842 34.7956,-11.2847 35.7051,-10.2856 C36.6146,-9.28662 37.0693,-7.8597 37.0693,-6.00488 C37.0693,-3.49837 36.4141,-1.70801 35.1035,-0.633789 C34.2728,0.0465495 33.306,0.386719 32.2031,0.386719 C31.3366,0.386719 30.6097,0.19694 30.0225,-0.182617 C29.6787,-0.397461 29.2956,-0.766276 28.873,-1.28906 L28.873,4.58691 L26.9395,4.58691 L26.9395,-11.4512 M39.3779,-11.5049 L41.2148,-11.5049 L41.2148,-9.51758 C41.3652,-9.9043 41.734,-10.3752 42.3213,-10.9302 C42.9085,-11.4852 43.5853,-11.7627 44.3516,-11.7627 C44.3874,-11.7627 44.4482,-11.7591 44.5342,-11.752 C44.6201,-11.7448 44.7669,-11.7305 44.9746,-11.709 L44.9746,-9.66797 C44.86,-9.68945 44.7544,-9.70378 44.6577,-9.71094 C44.561,-9.7181 44.4554,-9.72168 44.3408,-9.72168 C43.3669,-9.72168 42.6185,-9.40837 42.0957,-8.78174 C41.5729,-8.15511 41.3115,-7.43359 41.3115,-6.61719 L41.3115,0 L39.3779,0 L39.3779,-11.5049 M51.4277,-11.7627 C52.2441,-11.7627 53.0355,-11.5711 53.8018,-11.188 C54.568,-10.8049 55.1517,-10.3089 55.5527,-9.7002 C55.9395,-9.12012 56.1973,-8.44336 56.3262,-7.66992 C56.4408,-7.13997 56.498,-6.29492 56.498,-5.13477 L48.0654,-5.13477 C48.1012,-3.96745 48.377,-3.03109 48.8926,-2.32568 C49.4082,-1.62028 50.2067,-1.26758 51.2881,-1.26758 C52.2979,-1.26758 53.1035,-1.60059 53.7051,-2.2666 C54.0488,-2.65332 54.2923,-3.10091 54.4355,-3.60938 L56.3369,-3.60938 C56.2868,-3.18685 56.1203,-2.71598 55.8374,-2.19678 C55.5545,-1.67757 55.2376,-1.25326 54.8867,-0.923828 C54.2995,-0.350911 53.5726,0.0358073 52.7061,0.236328 C52.2406,0.350911 51.7142,0.408203 51.127,0.408203 C49.6947,0.408203 48.4808,-0.112793 47.4854,-1.15479 C46.4899,-2.19678 45.9922,-3.65592 45.9922,-5.53223 C45.9922,-7.37988 46.4935,-8.88021 47.4961,-10.0332 C48.4987,-11.1862 49.8092,-11.7627 51.4277,-11.7627 M54.5107,-6.6709 C54.432,-7.50879 54.2493,-8.17839 53.9629,-8.67969 C53.4329,-9.61068 52.5485,-10.0762 51.3096,-10.0762 C50.4215,-10.0762 49.6768,-9.7557 49.0752,-9.11475 C48.4736,-8.4738 48.1549,-7.65918 48.1191,-6.6709 L54.5107,-6.6709 M60.0205,-3.60938 C60.0778,-2.96484 60.2389,-2.4707 60.5039,-2.12695 C60.9909,-1.50391 61.8359,-1.19238 63.0391,-1.19238 C63.7552,-1.19238 64.3854,-1.34814 64.9297,-1.65967 C65.474,-1.97119 65.7461,-2.4528 65.7461,-3.10449 C65.7461,-3.59863 65.5277,-3.97461 65.0908,-4.23242 C64.8115,-4.38997 64.2601,-4.57259 63.4365,-4.78027 L61.9004,-5.16699 C60.9193,-5.41048 60.196,-5.68262 59.7305,-5.9834 C58.8997,-6.50618 58.4844,-7.22949 58.4844,-8.15332 C58.4844,-9.24186 58.8765,-10.1227 59.6606,-10.7959 C60.4448,-11.4691 61.4993,-11.8057 62.8242,-11.8057 C64.5573,-11.8057 65.807,-11.2972 66.5732,-10.2803 C67.0531,-9.63574 67.2858,-8.94108 67.2715,-8.19629 L65.4453,-8.19629 C65.4095,-8.63314 65.2555,-9.0306 64.9834,-9.38867 C64.5394,-9.89714 63.7695,-10.1514 62.6738,-10.1514 C61.9434,-10.1514 61.3901,-10.0117 61.0142,-9.73242 C60.6382,-9.45313 60.4502,-9.08431 60.4502,-8.62598 C60.4502,-8.12467 60.6973,-7.72363 61.1914,-7.42285 C61.4779,-7.24382 61.9004,-7.08626 62.459,-6.9502 L63.7373,-6.63867 C65.1266,-6.30208 66.0576,-5.97624 66.5303,-5.66113 C67.2822,-5.16699 67.6582,-4.38997 67.6582,-3.33008 C67.6582,-2.30599 67.2697,-1.42155 66.4927,-0.676758 C65.7157,0.0680339 64.5322,0.44043 62.9424,0.44043 C61.2308,0.44043 60.0187,0.0519206 59.3062,-0.725098 C58.5936,-1.50212 58.2122,-2.46354 58.1621,-3.60938 L60.0205,-3.60938 M71.0205,-3.60938 C71.0778,-2.96484 71.2389,-2.4707 71.5039,-2.12695 C71.9909,-1.50391 72.8359,-1.19238 74.0391,-1.19238 C74.7552,-1.19238 75.3854,-1.34814 75.9297,-1.65967 C76.474,-1.97119 76.7461,-2.4528 76.7461,-3.10449 C76.7461,-3.59863 76.5277,-3.97461 76.0908,-4.23242 C75.8115,-4.38997 75.2601,-4.57259 74.4365,-4.78027 L72.9004,-5.16699 C71.9193,-5.41048 71.196,-5.68262 70.7305,-5.9834 C69.8997,-6.50618 69.4844,-7.22949 69.4844,-8.15332 C69.4844,-9.24186 69.8765,-10.1227 70.6606,-10.7959 C71.4448,-11.4691 72.4993,-11.8057 73.8242,-11.8057 C75.5573,-11.8057 76.807,-11.2972 77.5732,-10.2803 C78.0531,-9.63574 78.2858,-8.94108 78.2715,-8.19629 L76.4453,-8.19629 C76.4095,-8.63314 76.2555,-9.0306 75.9834,-9.38867 C75.5394,-9.89714 74.7695,-10.1514 73.6738,-10.1514 C72.9434,-10.1514 72.3901,-10.0117 72.0142,-9.73242 C71.6382,-9.45313 71.4502,-9.08431 71.4502,-8.62598 C71.4502,-8.12467 71.6973,-7.72363 72.1914,-7.42285 C72.4779,-7.24382 72.9004,-7.08626 73.459,-6.9502 L74.7373,-6.63867 C76.1266,-6.30208 77.0576,-5.97624 77.5303,-5.66113 C78.2822,-5.16699 78.6582,-4.38997 78.6582,-3.33008 C78.6582,-2.30599 78.2697,-1.42155 77.4927,-0.676758 C76.7157,0.0680339 75.5322,0.44043 73.9424,0.44043 C72.2308,0.44043 71.0187,0.0519206 70.3062,-0.725098 C69.5936,-1.50212 69.2122,-2.46354 69.1621,-3.60938 L71.0205,-3.60938 M80.8711,-11.4512 L82.8369,-11.4512 L82.8369,0 L80.8711,0 L80.8711,-11.4512 M80.8711,-15.7803 L82.8369,-15.7803 L82.8369,-13.5889 L80.8711,-13.5889 L80.8711,-15.7803 M90.3115,-1.24609 C91.5934,-1.24609 92.4725,-1.73128 92.9487,-2.70166 C93.425,-3.67204 93.6631,-4.75163 93.6631,-5.94043 C93.6631,-7.01465 93.4912,-7.88835 93.1475,-8.56152 C92.6032,-9.62142 91.665,-10.1514 90.333,-10.1514 C89.1514,-10.1514 88.292,-9.7002 87.7549,-8.79785 C87.2178,-7.89551 86.9492,-6.80697 86.9492,-5.53223 C86.9492,-4.30762 87.2178,-3.28711 87.7549,-2.4707 C88.292,-1.6543 89.1442,-1.24609 90.3115,-1.24609 M90.3867,-11.8379 C91.8691,-11.8379 93.1224,-11.3438 94.1465,-10.3555 C95.1706,-9.36719 95.6826,-7.91341 95.6826,-5.99414 C95.6826,-4.13932 95.2314,-2.60677 94.3291,-1.39648 C93.4268,-0.186198 92.0267,0.418945 90.1289,0.418945 C88.5462,0.418945 87.2894,-0.116374 86.3584,-1.18701 C85.4274,-2.25765 84.9619,-3.69531 84.9619,-5.5 C84.9619,-7.43359 85.4525,-8.97331 86.4336,-10.1191 C87.4147,-11.265 88.7324,-11.8379 90.3867,-11.8379 M97.9805,-11.5049 L99.8174,-11.5049 L99.8174,-9.87207 C100.362,-10.5452 100.938,-11.0286 101.547,-11.3223 C102.156,-11.6159 102.832,-11.7627 103.577,-11.7627 C105.21,-11.7627 106.313,-11.1934 106.886,-10.0547 C107.201,-9.43164 107.358,-8.54004 107.358,-7.37988 L107.358,0 L105.393,0 L105.393,-7.25098 C105.393,-7.9528 105.289,-8.51855 105.081,-8.94824 C104.737,-9.66439 104.114,-10.0225 103.212,-10.0225 C102.754,-10.0225 102.378,-9.97591 102.084,-9.88281 C101.554,-9.72526 101.089,-9.41016 100.688,-8.9375 C100.365,-8.55794 100.156,-8.16585 100.059,-7.76123 C99.9624,-7.35661 99.9141,-6.77832 99.9141,-6.02637 L99.9141,0 L97.9805,0 L97.9805,-11.5049"/>
</g>

<g fill="#ffffff" fill-opacity="1" stroke="none" transform="matrix(5e-05,0,0,5e-05,-39.5,-17.5)"
font-family=".AppleSystemUIFont" font-size="13" font-weight="400" font-style="normal" 
>
<path vector-effect="none" fill-rule="evenodd" d="M5.61e+06,540000 L5.61e+06,1.24e+06 L7.44e+06,1.24e+06 L7.44e+06,540000 L5.61e+06,540000"/>
</g>

<g fill="#000000" fill-opacity="0.101961" stroke="none" transform="matrix(5e-05,0,0,5e-05,-39.5,-17.5)"
font-family=".AppleSystemUIFont" font-size="13" font-weight="400" font-style="normal" 
>
<path vector-effect="none" fill-rule="evenodd" d="M5.66984e+06,595851 L5.66984e+06,752234 L6.2682e+06,752234 L6.2682e+06,595851 L5.66984e+06,595851"/>
</g>

<g fill="#1171be" fill-opacity="1" stroke="#1171be" stroke-opacity="1" stroke-width="4" stroke-linecap="butt" stroke-linejoin="round" transform="matrix(0.5,0,0,0.5,-39.5,-17.5)"
font-family=".AppleSystemUIFont" font-size="13" font-weight="400" font-style="normal" 
>
<polyline fill="none" vector-effect="none" points="566.984,89 626.82,89 " />
</g>

<g fill="none" stroke="#dd5400" stroke-opacity="1" stroke-width="3" stroke-linecap="butt" stroke-linejoin="miter" stroke-miterlimit="2" transform="matrix(0.5,0,0,0.5,-39.5,-17.5)"
font-family=".AppleSystemUIFont" font-size="13" font-weight="400" font-style="normal" 
>
<path vector-effect="none" fill-rule="evenodd" d="M604.902,110.596 C604.902,106.177 601.32,102.596 596.902,102.596 C592.484,102.596 588.902,106.177 588.902,110.596 C588.902,115.014 592.484,118.596 596.902,118.596 C601.32,118.596 604.902,115.014 604.902,110.596 "/>
</g>

<g fill="#212121" fill-opacity="1" stroke="none" transform="matrix(0.5,0,0,0.5,276.154,18.7021)"
font-family=".AppleSystemUIFont" font-size="13" font-weight="400" font-style="normal" 
>
<path vector-effect="none" fill-rule="evenodd" d="M1.53809,-12.9111 L7.34766,-12.9111 C8.49609,-12.9111 9.42188,-12.5874 10.125,-11.9399 C10.8281,-11.2925 11.1797,-10.3828 11.1797,-9.21094 C11.1797,-8.20313 10.8662,-7.32568 10.2393,-6.57861 C9.6123,-5.83154 8.64844,-5.45801 7.34766,-5.45801 L3.28711,-5.45801 L3.28711,0 L1.53809,0 L1.53809,-12.9111 M9.41309,-9.20215 C9.41309,-10.1514 9.06152,-10.7959 8.3584,-11.1357 C7.97168,-11.3174 7.44141,-11.4082 6.76758,-11.4082 L3.28711,-11.4082 L3.28711,-6.93457 L6.76758,-6.93457 C7.55273,-6.93457 8.18994,-7.10156 8.6792,-7.43555 C9.16846,-7.76953 9.41309,-8.3584 9.41309,-9.20215 M17.0801,-9.62402 C17.748,-9.62402 18.3955,-9.46729 19.0225,-9.15381 C19.6494,-8.84033 20.127,-8.43457 20.4551,-7.93652 C20.7715,-7.46191 20.9824,-6.9082 21.0879,-6.27539 C21.1816,-5.8418 21.2285,-5.15039 21.2285,-4.20117 L14.3291,-4.20117 C14.3584,-3.24609 14.584,-2.47998 15.0059,-1.90283 C15.4277,-1.32568 16.0811,-1.03711 16.9658,-1.03711 C17.792,-1.03711 18.4512,-1.30957 18.9434,-1.85449 C19.2246,-2.1709 19.4238,-2.53711 19.541,-2.95313 L21.0967,-2.95313 C21.0557,-2.60742 20.9194,-2.22217 20.688,-1.79736 C20.4565,-1.37256 20.1973,-1.02539 19.9102,-0.755859 C19.4297,-0.287109 18.835,0.0292969 18.126,0.193359 C17.7451,0.287109 17.3145,0.333984 16.834,0.333984 C15.6621,0.333984 14.6689,-0.0922852 13.8545,-0.944824 C13.04,-1.79736 12.6328,-2.99121 12.6328,-4.52637 C12.6328,-6.03809 13.043,-7.26563 13.8633,-8.20898 C14.6836,-9.15234 15.7559,-9.62402 17.0801,-9.62402 M19.6025,-5.45801 C19.5381,-6.14355 19.3887,-6.69141 19.1543,-7.10156 C18.7207,-7.86328 17.9971,-8.24414 16.9834,-8.24414 C16.2568,-8.24414 15.6475,-7.98193 15.1553,-7.45752 C14.6631,-6.93311 14.4023,-6.2666 14.373,-5.45801 L19.6025,-5.45801 M24.373,-2.50488 C24.373,-2.04785 24.54,-1.6875 24.874,-1.42383 C25.208,-1.16016 25.6035,-1.02832 26.0605,-1.02832 C26.6172,-1.02832 27.1563,-1.15723 27.6777,-1.41504 C28.5566,-1.84277 28.9961,-2.54297 28.9961,-3.51563 L28.9961,-4.79004 C28.8027,-4.66699 28.5537,-4.56445 28.249,-4.48242 C27.9443,-4.40039 27.6455,-4.3418 27.3525,-4.30664 L26.3945,-4.18359 C25.8203,-4.10742 25.3896,-3.9873 25.1025,-3.82324 C24.6162,-3.54785 24.373,-3.1084 24.373,-2.50488 M28.2051,-5.7041 C28.5684,-5.75098 28.8115,-5.90332 28.9346,-6.16113 C29.0049,-6.30176 29.04,-6.50391 29.04,-6.76758 C29.04,-7.30664 28.8481,-7.69775 28.4644,-7.94092 C28.0806,-8.18408 27.5313,-8.30566 26.8164,-8.30566 C25.9902,-8.30566 25.4043,-8.08301 25.0586,-7.6377 C24.8652,-7.3916 24.7393,-7.02539 24.6807,-6.53906 L23.2041,-6.53906 C23.2334,-7.69922 23.6099,-8.50635 24.3335,-8.96045 C25.0571,-9.41455 25.8965,-9.6416 26.8516,-9.6416 C27.959,-9.6416 28.8584,-9.43066 29.5498,-9.00879 C30.2354,-8.58691 30.5781,-7.93066 30.5781,-7.04004 L30.5781,-1.61719 C30.5781,-1.45313 30.6118,-1.32129 30.6792,-1.22168 C30.7466,-1.12207 30.8887,-1.07227 31.1055,-1.07227 C31.1758,-1.07227 31.2549,-1.07666 31.3428,-1.08545 C31.4307,-1.09424 31.5244,-1.10742 31.624,-1.125 L31.624,0.0439453 C31.3779,0.114258 31.1904,0.158203 31.0615,0.175781 C30.9326,0.193359 30.7568,0.202148 30.5342,0.202148 C29.9893,0.202148 29.5938,0.00878906 29.3477,-0.37793 C29.2188,-0.583008 29.1279,-0.873047 29.0752,-1.24805 C28.7529,-0.826172 28.29,-0.459961 27.6865,-0.149414 C27.083,0.161133 26.418,0.316406 25.6914,0.316406 C24.8184,0.316406 24.105,0.0512695 23.5513,-0.479004 C22.9976,-1.00928 22.7207,-1.67285 22.7207,-2.46973 C22.7207,-3.34277 22.9932,-4.01953 23.5381,-4.5 C24.083,-4.98047 24.7979,-5.27637 25.6826,-5.3877 L28.2051,-5.7041 M33.125,-12.9111 L34.6455,-12.9111 L34.6455,-5.41406 L38.7061,-9.41309 L40.7275,-9.41309 L37.124,-5.88867 L40.9297,0 L38.9082,0 L35.9727,-4.74609 L34.6455,-3.5332 L34.6455,0 L33.125,0 L33.125,-12.9111 M53.374,-6.99609 C54.1943,-6.99609 54.8433,-7.16016 55.3208,-7.48828 C55.7983,-7.81641 56.0371,-8.4082 56.0371,-9.26367 C56.0371,-10.1836 55.7031,-10.8105 55.0352,-11.1445 C54.6777,-11.3203 54.2002,-11.4082 53.6025,-11.4082 L49.3311,-11.4082 L49.3311,-6.99609 L53.374,-6.99609 M47.582,-12.9111 L53.5586,-12.9111 C54.543,-12.9111 55.3545,-12.7676 55.9932,-12.4805 C57.2061,-11.9297 57.8125,-10.9131 57.8125,-9.43066 C57.8125,-8.65723 57.6528,-8.02441 57.3335,-7.53223 C57.0142,-7.04004 56.5674,-6.64453 55.9932,-6.3457 C56.4971,-6.14063 56.8765,-5.87109 57.1313,-5.53711 C57.3862,-5.20313 57.5283,-4.66113 57.5576,-3.91113 L57.6191,-2.17969 C57.6367,-1.6875 57.6777,-1.32129 57.7422,-1.08105 C57.8477,-0.670898 58.0352,-0.407227 58.3047,-0.290039 L58.3047,0 L56.1602,0 C56.1016,-0.111328 56.0547,-0.254883 56.0195,-0.430664 C55.9844,-0.606445 55.9551,-0.946289 55.9316,-1.4502 L55.8262,-3.60352 C55.7852,-4.44727 55.4717,-5.0127 54.8857,-5.2998 C54.5518,-5.45801 54.0273,-5.53711 53.3125,-5.53711 L49.3311,-5.53711 L49.3311,0 L47.582,0 L47.582,-12.9111 M61.3574,-2.50488 C61.3574,-2.04785 61.5244,-1.6875 61.8584,-1.42383 C62.1924,-1.16016 62.5879,-1.02832 63.0449,-1.02832 C63.6016,-1.02832 64.1406,-1.15723 64.6621,-1.41504 C65.541,-1.84277 65.9805,-2.54297 65.9805,-3.51563 L65.9805,-4.79004 C65.7871,-4.66699 65.5381,-4.56445 65.2334,-4.48242 C64.9287,-4.40039 64.6299,-4.3418 64.3369,-4.30664 L63.3789,-4.18359 C62.8047,-4.10742 62.374,-3.9873 62.0869,-3.82324 C61.6006,-3.54785 61.3574,-3.1084 61.3574,-2.50488 M65.1895,-5.7041 C65.5527,-5.75098 65.7959,-5.90332 65.9189,-6.16113 C65.9893,-6.30176 66.0244,-6.50391 66.0244,-6.76758 C66.0244,-7.30664 65.8325,-7.69775 65.4487,-7.94092 C65.0649,-8.18408 64.5156,-8.30566 63.8008,-8.30566 C62.9746,-8.30566 62.3887,-8.08301 62.043,-7.6377 C61.8496,-7.3916 61.7236,-7.02539 61.665,-6.53906 L60.1885,-6.53906 C60.2178,-7.69922 60.5942,-8.50635 61.3179,-8.96045 C62.0415,-9.41455 62.8809,-9.6416 63.8359,-9.6416 C64.9434,-9.6416 65.8428,-9.43066 66.5342,-9.00879 C67.2197,-8.58691 67.5625,-7.93066 67.5625,-7.04004 L67.5625,-1.61719 C67.5625,-1.45313 67.5962,-1.32129 67.6636,-1.22168 C67.731,-1.12207 67.873,-1.07227 68.0898,-1.07227 C68.1602,-1.07227 68.2393,-1.07666 68.3271,-1.08545 C68.415,-1.09424 68.5088,-1.10742 68.6084,-1.125 L68.6084,0.0439453 C68.3623,0.114258 68.1748,0.158203 68.0459,0.175781 C67.917,0.193359 67.7412,0.202148 67.5186,0.202148 C66.9736,0.202148 66.5781,0.00878906 66.332,-0.37793 C66.2031,-0.583008 66.1123,-0.873047 66.0596,-1.24805 C65.7373,-0.826172 65.2744,-0.459961 64.6709,-0.149414 C64.0674,0.161133 63.4023,0.316406 62.6758,0.316406 C61.8027,0.316406 61.0894,0.0512695 60.5356,-0.479004 C59.9819,-1.00928 59.7051,-1.67285 59.7051,-2.46973 C59.7051,-3.34277 59.9775,-4.01953 60.5225,-4.5 C61.0674,-4.98047 61.7822,-5.27637 62.667,-5.3877 L65.1895,-5.7041 M70.1445,-9.41309 L71.6475,-9.41309 L71.6475,-8.07715 C72.0928,-8.62793 72.5645,-9.02344 73.0625,-9.26367 C73.5605,-9.50391 74.1143,-9.62402 74.7236,-9.62402 C76.0596,-9.62402 76.9619,-9.1582 77.4307,-8.22656 C77.6885,-7.7168 77.8174,-6.9873 77.8174,-6.03809 L77.8174,0 L76.209,0 L76.209,-5.93262 C76.209,-6.50684 76.124,-6.96973 75.9541,-7.32129 C75.6729,-7.90723 75.1631,-8.2002 74.4248,-8.2002 C74.0498,-8.2002 73.7422,-8.16211 73.502,-8.08594 C73.0684,-7.95703 72.6875,-7.69922 72.3594,-7.3125 C72.0957,-7.00195 71.9243,-6.68115 71.8452,-6.3501 C71.7661,-6.01904 71.7266,-5.5459 71.7266,-4.93066 L71.7266,0 L70.1445,0 L70.1445,-9.41309 M83.4668,-9.58008 C84.2051,-9.58008 84.8496,-9.39844 85.4004,-9.03516 C85.6992,-8.83008 86.0039,-8.53125 86.3145,-8.13867 L86.3145,-9.3252 L87.7734,-9.3252 L87.7734,-0.764648 C87.7734,0.430664 87.5977,1.37402 87.2461,2.06543 C86.5898,3.34277 85.3506,3.98145 83.5283,3.98145 C82.5146,3.98145 81.6621,3.75439 80.9707,3.30029 C80.2793,2.84619 79.8926,2.13574 79.8105,1.16895 L81.4189,1.16895 C81.4951,1.59082 81.6475,1.91602 81.876,2.14453 C82.2334,2.49609 82.7959,2.67188 83.5635,2.67188 C84.7764,2.67188 85.5703,2.24414 85.9453,1.38867 C86.168,0.884766 86.2705,-0.0146484 86.2529,-1.30957 C85.9365,-0.829102 85.5557,-0.47168 85.1104,-0.237305 C84.665,-0.00292969 84.0762,0.114258 83.3438,0.114258 C82.3242,0.114258 81.4321,-0.247559 80.6675,-0.971191 C79.9028,-1.69482 79.5205,-2.8916 79.5205,-4.56152 C79.5205,-6.1377 79.9058,-7.36816 80.6763,-8.25293 C81.4468,-9.1377 82.377,-9.58008 83.4668,-9.58008 M86.3145,-4.74609 C86.3145,-5.91211 86.0742,-6.77637 85.5938,-7.33887 C85.1133,-7.90137 84.501,-8.18262 83.7568,-8.18262 C82.6436,-8.18262 81.8818,-7.66113 81.4717,-6.61816 C81.2549,-6.06152 81.1465,-5.33203 81.1465,-4.42969 C81.1465,-3.36914 81.3618,-2.56201 81.7925,-2.0083 C82.2231,-1.45459 82.8018,-1.17773 83.5283,-1.17773 C84.665,-1.17773 85.4648,-1.69043 85.9277,-2.71582 C86.1855,-3.2959 86.3145,-3.97266 86.3145,-4.74609 M94.0645,-9.62402 C94.7324,-9.62402 95.3799,-9.46729 96.0068,-9.15381 C96.6338,-8.84033 97.1113,-8.43457 97.4395,-7.93652 C97.7559,-7.46191 97.9668,-6.9082 98.0723,-6.27539 C98.166,-5.8418 98.2129,-5.15039 98.2129,-4.20117 L91.3135,-4.20117 C91.3428,-3.24609 91.5684,-2.47998 91.9902,-1.90283 C92.4121,-1.32568 93.0654,-1.03711 93.9502,-1.03711 C94.7764,-1.03711 95.4355,-1.30957 95.9277,-1.85449 C96.209,-2.1709 96.4082,-2.53711 96.5254,-2.95313 L98.0811,-2.95313 C98.04,-2.60742 97.9038,-2.22217 97.6724,-1.79736 C97.4409,-1.37256 97.1816,-1.02539 96.8945,-0.755859 C96.4141,-0.287109 95.8193,0.0292969 95.1104,0.193359 C94.7295,0.287109 94.2988,0.333984 93.8184,0.333984 C92.6465,0.333984 91.6533,-0.0922852 90.8389,-0.944824 C90.0244,-1.79736 89.6172,-2.99121 89.6172,-4.52637 C89.6172,-6.03809 90.0273,-7.26563 90.8477,-8.20898 C91.668,-9.15234 92.7402,-9.62402 94.0645,-9.62402 M96.5869,-5.45801 C96.5225,-6.14355 96.373,-6.69141 96.1387,-7.10156 C95.7051,-7.86328 94.9814,-8.24414 93.9678,-8.24414 C93.2412,-8.24414 92.6318,-7.98193 92.1396,-7.45752 C91.6475,-6.93311 91.3867,-6.2666 91.3574,-5.45801 L96.5869,-5.45801"/>
</g>

<g fill="#212121" fill-opacity="1" stroke="none" transform="matrix(0.5,0,0,0.5,276.154,29.5)"
font-family=".AppleSystemUIFont" font-size="13" font-weight="400" font-style="normal" 
>
<path vector-effect="none" fill-rule="evenodd" d="M1.32715,-12.9111 L3.83203,-12.9111 L7.54102,-1.99512 L11.2236,-12.9111 L13.7021,-12.9111 L13.7021,0 L12.041,0 L12.041,-7.62012 C12.041,-7.88379 12.0469,-8.32031 12.0586,-8.92969 C12.0703,-9.53906 12.0762,-10.1924 12.0762,-10.8896 L8.39355,0 L6.66211,0 L2.95313,-10.8896 L2.95313,-10.4941 C2.95313,-10.1777 2.96045,-9.6958 2.9751,-9.04834 C2.98975,-8.40088 2.99707,-7.9248 2.99707,-7.62012 L2.99707,0 L1.32715,0 L1.32715,-12.9111 M20.0645,-9.62402 C20.7324,-9.62402 21.3799,-9.46729 22.0068,-9.15381 C22.6338,-8.84033 23.1113,-8.43457 23.4395,-7.93652 C23.7559,-7.46191 23.9668,-6.9082 24.0723,-6.27539 C24.166,-5.8418 24.2129,-5.15039 24.2129,-4.20117 L17.3135,-4.20117 C17.3428,-3.24609 17.5684,-2.47998 17.9902,-1.90283 C18.4121,-1.32568 19.0654,-1.03711 19.9502,-1.03711 C20.7764,-1.03711 21.4355,-1.30957 21.9277,-1.85449 C22.209,-2.1709 22.4082,-2.53711 22.5254,-2.95313 L24.0811,-2.95313 C24.04,-2.60742 23.9038,-2.22217 23.6724,-1.79736 C23.4409,-1.37256 23.1816,-1.02539 22.8945,-0.755859 C22.4141,-0.287109 21.8193,0.0292969 21.1104,0.193359 C20.7295,0.287109 20.2988,0.333984 19.8184,0.333984 C18.6465,0.333984 17.6533,-0.0922852 16.8389,-0.944824 C16.0244,-1.79736 15.6172,-2.99121 15.6172,-4.52637 C15.6172,-6.03809 16.0273,-7.26563 16.8477,-8.20898 C17.668,-9.15234 18.7402,-9.62402 20.0645,-9.62402 M22.5869,-5.45801 C22.5225,-6.14355 22.373,-6.69141 22.1387,-7.10156 C21.7051,-7.86328 20.9814,-8.24414 19.9678,-8.24414 C19.2412,-8.24414 18.6318,-7.98193 18.1396,-7.45752 C17.6475,-6.93311 17.3867,-6.2666 17.3574,-5.45801 L22.5869,-5.45801 M27.3574,-2.50488 C27.3574,-2.04785 27.5244,-1.6875 27.8584,-1.42383 C28.1924,-1.16016 28.5879,-1.02832 29.0449,-1.02832 C29.6016,-1.02832 30.1406,-1.15723 30.6621,-1.41504 C31.541,-1.84277 31.9805,-2.54297 31.9805,-3.51563 L31.9805,-4.79004 C31.7871,-4.66699 31.5381,-4.56445 31.2334,-4.48242 C30.9287,-4.40039 30.6299,-4.3418 30.3369,-4.30664 L29.3789,-4.18359 C28.8047,-4.10742 28.374,-3.9873 28.0869,-3.82324 C27.6006,-3.54785 27.3574,-3.1084 27.3574,-2.50488 M31.1895,-5.7041 C31.5527,-5.75098 31.7959,-5.90332 31.9189,-6.16113 C31.9893,-6.30176 32.0244,-6.50391 32.0244,-6.76758 C32.0244,-7.30664 31.8325,-7.69775 31.4487,-7.94092 C31.0649,-8.18408 30.5156,-8.30566 29.8008,-8.30566 C28.9746,-8.30566 28.3887,-8.08301 28.043,-7.6377 C27.8496,-7.3916 27.7236,-7.02539 27.665,-6.53906 L26.1885,-6.53906 C26.2178,-7.69922 26.5942,-8.50635 27.3179,-8.96045 C28.0415,-9.41455 28.8809,-9.6416 29.8359,-9.6416 C30.9434,-9.6416 31.8428,-9.43066 32.5342,-9.00879 C33.2197,-8.58691 33.5625,-7.93066 33.5625,-7.04004 L33.5625,-1.61719 C33.5625,-1.45313 33.5962,-1.32129 33.6636,-1.22168 C33.731,-1.12207 33.873,-1.07227 34.0898,-1.07227 C34.1602,-1.07227 34.2393,-1.07666 34.3271,-1.08545 C34.415,-1.09424 34.5088,-1.10742 34.6084,-1.125 L34.6084,0.0439453 C34.3623,0.114258 34.1748,0.158203 34.0459,0.175781 C33.917,0.193359 33.7412,0.202148 33.5186,0.202148 C32.9736,0.202148 32.5781,0.00878906 32.332,-0.37793 C32.2031,-0.583008 32.1123,-0.873047 32.0596,-1.24805 C31.7373,-0.826172 31.2744,-0.459961 30.6709,-0.149414 C30.0674,0.161133 29.4023,0.316406 28.6758,0.316406 C27.8027,0.316406 27.0894,0.0512695 26.5356,-0.479004 C25.9819,-1.00928 25.7051,-1.67285 25.7051,-2.46973 C25.7051,-3.34277 25.9775,-4.01953 26.5225,-4.5 C27.0674,-4.98047 27.7822,-5.27637 28.667,-5.3877 L31.1895,-5.7041 M36.1445,-9.41309 L37.6475,-9.41309 L37.6475,-8.07715 C38.0928,-8.62793 38.5645,-9.02344 39.0625,-9.26367 C39.5605,-9.50391 40.1143,-9.62402 40.7236,-9.62402 C42.0596,-9.62402 42.9619,-9.1582 43.4307,-8.22656 C43.6885,-7.7168 43.8174,-6.9873 43.8174,-6.03809 L43.8174,0 L42.209,0 L42.209,-5.93262 C42.209,-6.50684 42.124,-6.96973 41.9541,-7.32129 C41.6729,-7.90723 41.1631,-8.2002 40.4248,-8.2002 C40.0498,-8.2002 39.7422,-8.16211 39.502,-8.08594 C39.0684,-7.95703 38.6875,-7.69922 38.3594,-7.3125 C38.0957,-7.00195 37.9243,-6.68115 37.8452,-6.3501 C37.7661,-6.01904 37.7266,-5.5459 37.7266,-4.93066 L37.7266,0 L36.1445,0 L36.1445,-9.41309 M52.375,-12.9111 L56.084,-1.91602 L59.749,-12.9111 L61.709,-12.9111 L56.998,0 L55.1436,0 L50.4414,-12.9111 L52.375,-12.9111 M63.0293,-2.50488 C63.0293,-2.04785 63.1963,-1.6875 63.5303,-1.42383 C63.8643,-1.16016 64.2598,-1.02832 64.7168,-1.02832 C65.2734,-1.02832 65.8125,-1.15723 66.334,-1.41504 C67.2129,-1.84277 67.6523,-2.54297 67.6523,-3.51563 L67.6523,-4.79004 C67.459,-4.66699 67.21,-4.56445 66.9053,-4.48242 C66.6006,-4.40039 66.3018,-4.3418 66.0088,-4.30664 L65.0508,-4.18359 C64.4766,-4.10742 64.0459,-3.9873 63.7588,-3.82324 C63.2725,-3.54785 63.0293,-3.1084 63.0293,-2.50488 M66.8613,-5.7041 C67.2246,-5.75098 67.4678,-5.90332 67.5908,-6.16113 C67.6611,-6.30176 67.6963,-6.50391 67.6963,-6.76758 C67.6963,-7.30664 67.5044,-7.69775 67.1206,-7.94092 C66.7368,-8.18408 66.1875,-8.30566 65.4727,-8.30566 C64.6465,-8.30566 64.0605,-8.08301 63.7148,-7.6377 C63.5215,-7.3916 63.3955,-7.02539 63.3369,-6.53906 L61.8604,-6.53906 C61.8896,-7.69922 62.2661,-8.50635 62.9897,-8.96045 C63.7134,-9.41455 64.5527,-9.6416 65.5078,-9.6416 C66.6152,-9.6416 67.5146,-9.43066 68.2061,-9.00879 C68.8916,-8.58691 69.2344,-7.93066 69.2344,-7.04004 L69.2344,-1.61719 C69.2344,-1.45313 69.2681,-1.32129 69.3354,-1.22168 C69.4028,-1.12207 69.5449,-1.07227 69.7617,-1.07227 C69.832,-1.07227 69.9111,-1.07666 69.999,-1.08545 C70.0869,-1.09424 70.1807,-1.10742 70.2803,-1.125 L70.2803,0.0439453 C70.0342,0.114258 69.8467,0.158203 69.7178,0.175781 C69.5889,0.193359 69.4131,0.202148 69.1904,0.202148 C68.6455,0.202148 68.25,0.00878906 68.0039,-0.37793 C67.875,-0.583008 67.7842,-0.873047 67.7314,-1.24805 C67.4092,-0.826172 66.9463,-0.459961 66.3428,-0.149414 C65.7393,0.161133 65.0742,0.316406 64.3477,0.316406 C63.4746,0.316406 62.7612,0.0512695 62.2075,-0.479004 C61.6538,-1.00928 61.377,-1.67285 61.377,-2.46973 C61.377,-3.34277 61.6494,-4.01953 62.1943,-4.5 C62.7393,-4.98047 63.4541,-5.27637 64.3389,-5.3877 L66.8613,-5.7041 M71.8604,-12.9111 L73.4424,-12.9111 L73.4424,0 L71.8604,0 L71.8604,-12.9111 M77.3828,-9.41309 L77.3828,-3.16406 C77.3828,-2.68359 77.459,-2.29102 77.6113,-1.98633 C77.8926,-1.42383 78.417,-1.14258 79.1846,-1.14258 C80.2861,-1.14258 81.0361,-1.63477 81.4346,-2.61914 C81.6514,-3.14648 81.7598,-3.87012 81.7598,-4.79004 L81.7598,-9.41309 L83.3418,-9.41309 L83.3418,0 L81.8477,0 L81.8652,-1.38867 C81.6602,-1.03125 81.4053,-0.729492 81.1006,-0.483398 C80.4971,0.00878906 79.7646,0.254883 78.9033,0.254883 C77.5615,0.254883 76.6475,-0.193359 76.1611,-1.08984 C75.8975,-1.57031 75.7656,-2.21191 75.7656,-3.01465 L75.7656,-9.41309 L77.3828,-9.41309 M89.7207,-9.62402 C90.3887,-9.62402 91.0361,-9.46729 91.6631,-9.15381 C92.29,-8.84033 92.7676,-8.43457 93.0957,-7.93652 C93.4121,-7.46191 93.623,-6.9082 93.7285,-6.27539 C93.8223,-5.8418 93.8691,-5.15039 93.8691,-4.20117 L86.9697,-4.20117 C86.999,-3.24609 87.2246,-2.47998 87.6465,-1.90283 C88.0684,-1.32568 88.7217,-1.03711 89.6064,-1.03711 C90.4326,-1.03711 91.0918,-1.30957 91.584,-1.85449 C91.8652,-2.1709 92.0645,-2.53711 92.1816,-2.95313 L93.7373,-2.95313 C93.6963,-2.60742 93.5601,-2.22217 93.3286,-1.79736 C93.0972,-1.37256 92.8379,-1.02539 92.5508,-0.755859 C92.0703,-0.287109 91.4756,0.0292969 90.7666,0.193359 C90.3857,0.287109 89.9551,0.333984 89.4746,0.333984 C88.3027,0.333984 87.3096,-0.0922852 86.4951,-0.944824 C85.6807,-1.79736 85.2734,-2.99121 85.2734,-4.52637 C85.2734,-6.03809 85.6836,-7.26563 86.5039,-8.20898 C87.3242,-9.15234 88.3965,-9.62402 89.7207,-9.62402 M92.2432,-5.45801 C92.1787,-6.14355 92.0293,-6.69141 91.7949,-7.10156 C91.3613,-7.86328 90.6377,-8.24414 89.624,-8.24414 C88.8975,-8.24414 88.2881,-7.98193 87.7959,-7.45752 C87.3037,-6.93311 87.043,-6.2666 87.0137,-5.45801 L92.2432,-5.45801"/>
</g>

<g fill="#212121" fill-opacity="1" stroke="none" transform="matrix(0.5,0,0,0.5,276.154,40.2979)"
font-family=".AppleSystemUIFont" font-size="13" font-weight="400" font-style="normal" 
>
<path vector-effect="none" fill-rule="evenodd" d="M6.94336,-13.2627 C9.22266,-13.2627 10.9102,-12.5303 12.0059,-11.0654 C12.8613,-9.92285 13.2891,-8.46094 13.2891,-6.67969 C13.2891,-4.75195 12.7998,-3.14941 11.8213,-1.87207 C10.6729,-0.37207 9.03516,0.37793 6.9082,0.37793 C4.92188,0.37793 3.36035,-0.27832 2.22363,-1.59082 C1.20996,-2.85645 0.703125,-4.45605 0.703125,-6.38965 C0.703125,-8.13574 1.13672,-9.62988 2.00391,-10.8721 C3.11719,-12.4658 4.76367,-13.2627 6.94336,-13.2627 M7.11914,-1.18652 C8.66016,-1.18652 9.7749,-1.73877 10.4634,-2.84326 C11.1519,-3.94775 11.4961,-5.21777 11.4961,-6.65332 C11.4961,-8.1709 11.0991,-9.39258 10.3052,-10.3184 C9.51123,-11.2441 8.42578,-11.707 7.04883,-11.707 C5.71289,-11.707 4.62305,-11.2485 3.7793,-10.3315 C2.93555,-9.41455 2.51367,-8.0625 2.51367,-6.27539 C2.51367,-4.8457 2.87549,-3.64014 3.59912,-2.65869 C4.32275,-1.67725 5.49609,-1.18652 7.11914,-1.18652 M15.0371,-12.9551 L16.5752,-12.9551 L16.5752,-8.27051 C16.9209,-8.72168 17.334,-9.06592 17.8145,-9.30322 C18.2949,-9.54053 18.8164,-9.65918 19.3789,-9.65918 C20.5508,-9.65918 21.5015,-9.25635 22.231,-8.45068 C22.9604,-7.64502 23.3252,-6.45703 23.3252,-4.88672 C23.3252,-3.39844 22.9648,-2.16211 22.2441,-1.17773 C21.5234,-0.193359 20.5244,0.298828 19.2471,0.298828 C18.5322,0.298828 17.9287,0.125977 17.4365,-0.219727 C17.1436,-0.424805 16.8301,-0.75293 16.4961,-1.2041 L16.4961,0 L15.0371,0 L15.0371,-12.9551 M19.1504,-1.09863 C20.0059,-1.09863 20.646,-1.43848 21.0708,-2.11816 C21.4956,-2.79785 21.708,-3.69434 21.708,-4.80762 C21.708,-5.79785 21.4956,-6.61816 21.0708,-7.26855 C20.646,-7.91895 20.0205,-8.24414 19.1943,-8.24414 C18.4736,-8.24414 17.8423,-7.97754 17.3003,-7.44434 C16.7583,-6.91113 16.4873,-6.03223 16.4873,-4.80762 C16.4873,-3.92285 16.5986,-3.20508 16.8213,-2.6543 C17.2373,-1.61719 18.0137,-1.09863 19.1504,-1.09863 M26.1006,-2.95313 C26.1475,-2.42578 26.2793,-2.02148 26.4961,-1.74023 C26.8945,-1.23047 27.5859,-0.975586 28.5703,-0.975586 C29.1563,-0.975586 29.6719,-1.10303 30.1172,-1.35791 C30.5625,-1.61279 30.7852,-2.00684 30.7852,-2.54004 C30.7852,-2.94434 30.6064,-3.25195 30.249,-3.46289 C30.0205,-3.5918 29.5693,-3.74121 28.8955,-3.91113 L27.6387,-4.22754 C26.8359,-4.42676 26.2441,-4.64941 25.8633,-4.89551 C25.1836,-5.32324 24.8438,-5.91504 24.8438,-6.6709 C24.8438,-7.56152 25.1646,-8.28223 25.8062,-8.83301 C26.4478,-9.38379 27.3105,-9.65918 28.3945,-9.65918 C29.8125,-9.65918 30.835,-9.24316 31.4619,-8.41113 C31.8545,-7.88379 32.0449,-7.31543 32.0332,-6.70605 L30.5391,-6.70605 C30.5098,-7.06348 30.3838,-7.38867 30.1611,-7.68164 C29.7979,-8.09766 29.168,-8.30566 28.2715,-8.30566 C27.6738,-8.30566 27.2212,-8.19141 26.9136,-7.96289 C26.606,-7.73438 26.4521,-7.43262 26.4521,-7.05762 C26.4521,-6.64746 26.6543,-6.31934 27.0586,-6.07324 C27.293,-5.92676 27.6387,-5.79785 28.0957,-5.68652 L29.1416,-5.43164 C30.2783,-5.15625 31.04,-4.88965 31.4268,-4.63184 C32.042,-4.22754 32.3496,-3.5918 32.3496,-2.72461 C32.3496,-1.88672 32.0317,-1.16309 31.396,-0.553711 C30.7603,0.0556641 29.792,0.360352 28.4912,0.360352 C27.0908,0.360352 26.0991,0.0424805 25.5161,-0.593262 C24.9331,-1.229 24.6211,-2.01563 24.5801,-2.95313 L26.1006,-2.95313 M38.0801,-9.62402 C38.748,-9.62402 39.3955,-9.46729 40.0225,-9.15381 C40.6494,-8.84033 41.127,-8.43457 41.4551,-7.93652 C41.7715,-7.46191 41.9824,-6.9082 42.0879,-6.27539 C42.1816,-5.8418 42.2285,-5.15039 42.2285,-4.20117 L35.3291,-4.20117 C35.3584,-3.24609 35.584,-2.47998 36.0059,-1.90283 C36.4277,-1.32568 37.0811,-1.03711 37.9658,-1.03711 C38.792,-1.03711 39.4512,-1.30957 39.9434,-1.85449 C40.2246,-2.1709 40.4238,-2.53711 40.541,-2.95313 L42.0967,-2.95313 C42.0557,-2.60742 41.9194,-2.22217 41.688,-1.79736 C41.4565,-1.37256 41.1973,-1.02539 40.9102,-0.755859 C40.4297,-0.287109 39.835,0.0292969 39.126,0.193359 C38.7451,0.287109 38.3145,0.333984 37.834,0.333984 C36.6621,0.333984 35.6689,-0.0922852 34.8545,-0.944824 C34.04,-1.79736 33.6328,-2.99121 33.6328,-4.52637 C33.6328,-6.03809 34.043,-7.26563 34.8633,-8.20898 C35.6836,-9.15234 36.7559,-9.62402 38.0801,-9.62402 M40.6025,-5.45801 C40.5381,-6.14355 40.3887,-6.69141 40.1543,-7.10156 C39.7207,-7.86328 38.9971,-8.24414 37.9834,-8.24414 C37.2568,-8.24414 36.6475,-7.98193 36.1553,-7.45752 C35.6631,-6.93311 35.4023,-6.2666 35.373,-5.45801 L40.6025,-5.45801 M44.2041,-9.41309 L45.707,-9.41309 L45.707,-7.78711 C45.8301,-8.10352 46.1318,-8.48877 46.6123,-8.94287 C47.0928,-9.39697 47.6465,-9.62402 48.2734,-9.62402 C48.3027,-9.62402 48.3525,-9.62109 48.4229,-9.61523 C48.4932,-9.60938 48.6133,-9.59766 48.7832,-9.58008 L48.7832,-7.91016 C48.6895,-7.92773 48.603,-7.93945 48.5239,-7.94531 C48.4448,-7.95117 48.3584,-7.9541 48.2646,-7.9541 C47.4678,-7.9541 46.8555,-7.69775 46.4277,-7.18506 C46,-6.67236 45.7861,-6.08203 45.7861,-5.41406 L45.7861,0 L44.2041,0 L44.2041,-9.41309 M50.918,-9.41309 L53.4316,-1.74902 L56.0596,-9.41309 L57.791,-9.41309 L54.2402,0 L52.5527,0 L49.0811,-9.41309 L50.918,-9.41309 M60.3574,-2.50488 C60.3574,-2.04785 60.5244,-1.6875 60.8584,-1.42383 C61.1924,-1.16016 61.5879,-1.02832 62.0449,-1.02832 C62.6016,-1.02832 63.1406,-1.15723 63.6621,-1.41504 C64.541,-1.84277 64.9805,-2.54297 64.9805,-3.51563 L64.9805,-4.79004 C64.7871,-4.66699 64.5381,-4.56445 64.2334,-4.48242 C63.9287,-4.40039 63.6299,-4.3418 63.3369,-4.30664 L62.3789,-4.18359 C61.8047,-4.10742 61.374,-3.9873 61.0869,-3.82324 C60.6006,-3.54785 60.3574,-3.1084 60.3574,-2.50488 M64.1895,-5.7041 C64.5527,-5.75098 64.7959,-5.90332 64.9189,-6.16113 C64.9893,-6.30176 65.0244,-6.50391 65.0244,-6.76758 C65.0244,-7.30664 64.8325,-7.69775 64.4487,-7.94092 C64.0649,-8.18408 63.5156,-8.30566 62.8008,-8.30566 C61.9746,-8.30566 61.3887,-8.08301 61.043,-7.6377 C60.8496,-7.3916 60.7236,-7.02539 60.665,-6.53906 L59.1885,-6.53906 C59.2178,-7.69922 59.5942,-8.50635 60.3179,-8.96045 C61.0415,-9.41455 61.8809,-9.6416 62.8359,-9.6416 C63.9434,-9.6416 64.8428,-9.43066 65.5342,-9.00879 C66.2197,-8.58691 66.5625,-7.93066 66.5625,-7.04004 L66.5625,-1.61719 C66.5625,-1.45313 66.5962,-1.32129 66.6636,-1.22168 C66.731,-1.12207 66.873,-1.07227 67.0898,-1.07227 C67.1602,-1.07227 67.2393,-1.07666 67.3271,-1.08545 C67.415,-1.09424 67.5088,-1.10742 67.6084,-1.125 L67.6084,0.0439453 C67.3623,0.114258 67.1748,0.158203 67.0459,0.175781 C66.917,0.193359 66.7412,0.202148 66.5186,0.202148 C65.9736,0.202148 65.5781,0.00878906 65.332,-0.37793 C65.2031,-0.583008 65.1123,-0.873047 65.0596,-1.24805 C64.7373,-0.826172 64.2744,-0.459961 63.6709,-0.149414 C63.0674,0.161133 62.4023,0.316406 61.6758,0.316406 C60.8027,0.316406 60.0894,0.0512695 59.5356,-0.479004 C58.9819,-1.00928 58.7051,-1.67285 58.7051,-2.46973 C58.7051,-3.34277 58.9775,-4.01953 59.5225,-4.5 C60.0674,-4.98047 60.7822,-5.27637 61.667,-5.3877 L64.1895,-5.7041 M69.4609,-12.041 L71.0605,-12.041 L71.0605,-9.41309 L72.5635,-9.41309 L72.5635,-8.12109 L71.0605,-8.12109 L71.0605,-1.97754 C71.0605,-1.64941 71.1719,-1.42969 71.3945,-1.31836 C71.5176,-1.25391 71.7227,-1.22168 72.0098,-1.22168 C72.0859,-1.22168 72.168,-1.22314 72.2559,-1.22607 C72.3438,-1.229 72.4463,-1.23633 72.5635,-1.24805 L72.5635,0 C72.3818,0.0527344 72.1929,0.0908203 71.9966,0.114258 C71.8003,0.137695 71.5879,0.149414 71.3594,0.149414 C70.6211,0.149414 70.1201,-0.0395508 69.8564,-0.41748 C69.5928,-0.79541 69.4609,-1.28613 69.4609,-1.88965 L69.4609,-8.12109 L68.1865,-8.12109 L68.1865,-9.41309 L69.4609,-9.41309 L69.4609,-12.041 M74.1445,-9.36914 L75.7529,-9.36914 L75.7529,0 L74.1445,0 L74.1445,-9.36914 M74.1445,-12.9111 L75.7529,-12.9111 L75.7529,-11.1182 L74.1445,-11.1182 L74.1445,-12.9111 M81.8643,-1.01953 C82.9131,-1.01953 83.6323,-1.4165 84.022,-2.21045 C84.4116,-3.00439 84.6064,-3.8877 84.6064,-4.86035 C84.6064,-5.73926 84.4658,-6.4541 84.1846,-7.00488 C83.7393,-7.87207 82.9717,-8.30566 81.8818,-8.30566 C80.915,-8.30566 80.2119,-7.93652 79.7725,-7.19824 C79.333,-6.45996 79.1133,-5.56934 79.1133,-4.52637 C79.1133,-3.52441 79.333,-2.68945 79.7725,-2.02148 C80.2119,-1.35352 80.9092,-1.01953 81.8643,-1.01953 M81.9258,-9.68555 C83.1387,-9.68555 84.1641,-9.28125 85.002,-8.47266 C85.8398,-7.66406 86.2588,-6.47461 86.2588,-4.9043 C86.2588,-3.38672 85.8896,-2.13281 85.1514,-1.14258 C84.4131,-0.152344 83.2676,0.342773 81.7148,0.342773 C80.4199,0.342773 79.3916,-0.0952148 78.6299,-0.971191 C77.8682,-1.84717 77.4873,-3.02344 77.4873,-4.5 C77.4873,-6.08203 77.8887,-7.3418 78.6914,-8.2793 C79.4941,-9.2168 80.5723,-9.68555 81.9258,-9.68555 M88.1289,-9.41309 L89.6318,-9.41309 L89.6318,-8.07715 C90.0771,-8.62793 90.5488,-9.02344 91.0469,-9.26367 C91.5449,-9.50391 92.0986,-9.62402 92.708,-9.62402 C94.0439,-9.62402 94.9463,-9.1582 95.415,-8.22656 C95.6729,-7.7168 95.8018,-6.9873 95.8018,-6.03809 L95.8018,0 L94.1934,0 L94.1934,-5.93262 C94.1934,-6.50684 94.1084,-6.96973 93.9385,-7.32129 C93.6572,-7.90723 93.1475,-8.2002 92.4092,-8.2002 C92.0342,-8.2002 91.7266,-8.16211 91.4863,-8.08594 C91.0527,-7.95703 90.6719,-7.69922 90.3438,-7.3125 C90.0801,-7.00195 89.9087,-6.68115 89.8296,-6.3501 C89.7505,-6.01904 89.7109,-5.5459 89.7109,-4.93066 L89.7109,0 L88.1289,0 L88.1289,-9.41309 M99.0693,-2.95313 C99.1162,-2.42578 99.248,-2.02148 99.4648,-1.74023 C99.8633,-1.23047 100.555,-0.975586 101.539,-0.975586 C102.125,-0.975586 102.641,-1.10303 103.086,-1.35791 C103.531,-1.61279 103.754,-2.00684 103.754,-2.54004 C103.754,-2.94434 103.575,-3.25195 103.218,-3.46289 C102.989,-3.5918 102.538,-3.74121 101.864,-3.91113 L100.607,-4.22754 C99.8047,-4.42676 99.2129,-4.64941 98.832,-4.89551 C98.1523,-5.32324 97.8125,-5.91504 97.8125,-6.6709 C97.8125,-7.56152 98.1333,-8.28223 98.7749,-8.83301 C99.4165,-9.38379 100.279,-9.65918 101.363,-9.65918 C102.781,-9.65918 103.804,-9.24316 104.431,-8.41113 C104.823,-7.88379 105.014,-7.31543 105.002,-6.70605 L103.508,-6.70605 C103.479,-7.06348 103.353,-7.38867 103.13,-7.68164 C102.767,-8.09766 102.137,-8.30566 101.24,-8.30566 C100.643,-8.30566 100.19,-8.19141 99.8823,-7.96289 C99.5747,-7.73438 99.4209,-7.43262 99.4209,-7.05762 C99.4209,-6.64746 99.623,-6.31934 100.027,-6.07324 C100.262,-5.92676 100.607,-5.79785 101.064,-5.68652 L102.11,-5.43164 C103.247,-5.15625 104.009,-4.88965 104.396,-4.63184 C105.011,-4.22754 105.318,-3.5918 105.318,-2.72461 C105.318,-1.88672 105,-1.16309 104.365,-0.553711 C103.729,0.0556641 102.761,0.360352 101.46,0.360352 C100.06,0.360352 99.0679,0.0424805 98.4849,-0.593262 C97.9019,-1.229 97.5898,-2.01563 97.5488,-2.95313 L99.0693,-2.95313"/>
</g>

<g fill="none" stroke="#212121" stroke-opacity="1" stroke-width="1" stroke-linecap="butt" stroke-linejoin="miter" stroke-miterlimit="2" transform="matrix(0.5,0,0,0.5,-39.5,-17.5)"
font-family=".AppleSystemUIFont" font-size="13" font-weight="400" font-style="normal" 
>
<path vector-effect="none" fill-rule="evenodd" d="M561,124 L561,54 L744,54 L744,124 L561,124"/>
</g>
</g>
</svg>
